solid untitled
facet normal 0.0 0.0 -1.0
outer loop
vertex 905.785472769478 1740.60358348885 0.0
vertex 885.785472769478 1720.60358348885 0.0
vertex 885.785472769478 1740.60358348885 0.0
endloop
endfacet
facet normal 0.0 0.0 -1.0
outer loop
vertex 885.785472769478 1720.60358348885 0.0
vertex 905.785472769478 1740.60358348885 0.0
vertex 905.785472769478 1720.60358348885 0.0
endloop
endfacet
facet normal 0.0 0.0 1.0
outer loop
vertex 905.785472769478 1736.60358348885 2.0
vertex 885.785472769478 1740.60358348885 2.0
vertex 885.785472769478 1736.60358348885 2.0
endloop
endfacet
facet normal 0.0 0.0 1.0
outer loop
vertex 885.785472769478 1740.60358348885 2.0
vertex 905.785472769478 1736.60358348885 2.0
vertex 905.785472769478 1740.60358348885 2.0
endloop
endfacet
facet normal 0.0 -1.0 0.0
outer loop
vertex 905.785472769478 1720.60358348885 2.0
vertex 885.785472769478 1720.60358348885 0.0
vertex 905.785472769478 1720.60358348885 0.0
endloop
endfacet
facet normal 0.0 -1.0 0.0
outer loop
vertex 885.785472769478 1720.60358348885 0.0
vertex 905.785472769478 1720.60358348885 2.0
vertex 885.785472769478 1720.60358348885 2.0
endloop
endfacet
facet normal -1.0 0.0 0.0
outer loop
vertex 885.785472769478 1724.60358348885 2.0
vertex 885.785472769478 1720.60358348885 0.0
vertex 885.785472769478 1720.60358348885 2.0
endloop
endfacet
facet normal -1.0 0.0 0.0
outer loop
vertex 885.785472769478 1720.60358348885 0.0
vertex 885.785472769478 1724.60358348885 2.0
vertex 885.785472769478 1740.60358348885 0.0
endloop
endfacet
facet normal -1.0 0.0 0.0
outer loop
vertex 885.785472769478 1740.60358348885 0.0
vertex 885.785472769478 1724.60358348885 2.0
vertex 885.785472769478 1726.60358348885 2.0
endloop
endfacet
facet normal -1.0 0.0 0.0
outer loop
vertex 885.785472769478 1740.60358348885 0.0
vertex 885.785472769478 1726.60358348885 2.0
vertex 885.785472769478 1734.60358348885 2.0
endloop
endfacet
facet normal -1.0 0.0 0.0
outer loop
vertex 885.785472769478 1740.60358348885 0.0
vertex 885.785472769478 1734.60358348885 2.0
vertex 885.785472769478 1736.60358348885 2.0
endloop
endfacet
facet normal -1.0 0.0 0.0
outer loop
vertex 885.785472769478 1740.60358348885 0.0
vertex 885.785472769478 1736.60358348885 2.0
vertex 885.785472769478 1740.60358348885 2.0
endloop
endfacet
facet normal 0.0 1.0 0.0
outer loop
vertex 885.785472769478 1740.60358348885 2.0
vertex 905.785472769478 1740.60358348885 0.0
vertex 885.785472769478 1740.60358348885 0.0
endloop
endfacet
facet normal 0.0 1.0 0.0
outer loop
vertex 905.785472769478 1740.60358348885 0.0
vertex 885.785472769478 1740.60358348885 2.0
vertex 905.785472769478 1740.60358348885 2.0
endloop
endfacet
facet normal 1.0 0.0 0.0
outer loop
vertex 905.785472769478 1740.60358348885 0.0
vertex 905.785472769478 1720.60358348885 2.0
vertex 905.785472769478 1720.60358348885 0.0
endloop
endfacet
facet normal 1.0 0.0 0.0
outer loop
vertex 905.785472769478 1720.60358348885 2.0
vertex 905.785472769478 1740.60358348885 0.0
vertex 905.785472769478 1724.60358348885 2.0
endloop
endfacet
facet normal 1.0 0.0 0.0
outer loop
vertex 905.785472769478 1724.60358348885 2.0
vertex 905.785472769478 1740.60358348885 0.0
vertex 905.785472769478 1726.60358348885 2.0
endloop
endfacet
facet normal 1.0 0.0 0.0
outer loop
vertex 905.785472769478 1726.60358348885 2.0
vertex 905.785472769478 1740.60358348885 0.0
vertex 905.785472769478 1734.60358348885 2.0
endloop
endfacet
facet normal 1.0 0.0 0.0
outer loop
vertex 905.785472769478 1734.60358348885 2.0
vertex 905.785472769478 1740.60358348885 0.0
vertex 905.785472769478 1736.60358348885 2.0
endloop
endfacet
facet normal 1.0 0.0 0.0
outer loop
vertex 905.785472769478 1736.60358348885 2.0
vertex 905.785472769478 1740.60358348885 0.0
vertex 905.785472769478 1740.60358348885 2.0
endloop
endfacet
facet normal 0.0 0.0 1.0
outer loop
vertex 905.785472769478 1720.60358348885 2.0
vertex 885.785472769478 1724.60358348885 2.0
vertex 885.785472769478 1720.60358348885 2.0
endloop
endfacet
facet normal 0.0 0.0 1.0
outer loop
vertex 885.785472769478 1724.60358348885 2.0
vertex 905.785472769478 1720.60358348885 2.0
vertex 905.785472769478 1724.60358348885 2.0
endloop
endfacet
facet normal 0.0 0.0 1.0
outer loop
vertex 905.785472769478 1726.60358348885 2.0
vertex 885.785472769478 1734.60358348885 2.0
vertex 885.785472769478 1726.60358348885 2.0
endloop
endfacet
facet normal 0.0 0.0 1.0
outer loop
vertex 885.785472769478 1734.60358348885 2.0
vertex 905.785472769478 1726.60358348885 2.0
vertex 905.785472769478 1734.60358348885 2.0
endloop
endfacet
facet normal 0.0 1.0 0.0
outer loop
vertex 886.126214506587 1726.60358348885 4.5881904510252
vertex 905.785472769478 1726.60358348885 2.0
vertex 885.785472769478 1726.60358348885 2.0
endloop
endfacet
facet normal 0.0 1.0 0.0
outer loop
vertex 905.785472769478 1726.60358348885 2.0
vertex 886.126214506587 1726.60358348885 4.5881904510252
vertex 895.785472769478 1726.60358348885 3.99999999999986
endloop
endfacet
facet normal 0.0 1.0 0.0
outer loop
vertex 895.785472769478 1726.60358348885 3.99999999999986
vertex 886.126214506587 1726.60358348885 4.5881904510252
vertex 895.00901563417 1726.60358348885 4.10222252113266
endloop
endfacet
facet normal 0.0 1.0 0.0
outer loop
vertex 895.00901563417 1726.60358348885 4.10222252113266
vertex 886.126214506587 1726.60358348885 4.5881904510252
vertex 894.285472769478 1726.60358348885 4.40192378864655
endloop
endfacet
facet normal 0.0 1.0 0.0
outer loop
vertex 894.285472769478 1726.60358348885 4.40192378864655
vertex 886.126214506587 1726.60358348885 4.5881904510252
vertex 893.664152425918 1726.60358348885 4.87867965644023
endloop
endfacet
facet normal 0.0 1.0 0.0
outer loop
vertex 893.664152425918 1726.60358348885 4.87867965644023
vertex 886.126214506587 1726.60358348885 4.5881904510252
vertex 887.125218731633 1726.60358348885 6.99999999999998
endloop
endfacet
facet normal 0.0 1.0 0.0
outer loop
vertex 893.664152425918 1726.60358348885 4.87867965644023
vertex 887.125218731633 1726.60358348885 6.99999999999998
vertex 893.187396558124 1726.60358348885 5.49999999999988
endloop
endfacet
facet normal 0.0 1.0 0.0
outer loop
vertex 893.187396558124 1726.60358348885 5.49999999999988
vertex 887.125218731633 1726.60358348885 6.99999999999998
vertex 892.887695290611 1726.60358348885 6.22354286469233
endloop
endfacet
facet normal 0.0 1.0 0.0
outer loop
vertex 892.887695290611 1726.60358348885 6.22354286469233
vertex 887.125218731633 1726.60358348885 6.99999999999998
vertex 892.785472769478 1726.60358348885 6.9999999999999
endloop
endfacet
facet normal 0.0 1.0 0.0
outer loop
vertex 892.785472769478 1726.60358348885 6.9999999999999
vertex 887.125218731633 1726.60358348885 6.99999999999998
vertex 892.887695290611 1726.60358348885 7.77645713530747
endloop
endfacet
facet normal 0.0 1.0 0.0
outer loop
vertex 892.887695290611 1726.60358348885 7.77645713530747
vertex 887.125218731633 1726.60358348885 6.99999999999998
vertex 888.714404957612 1726.60358348885 9.07106781186544
endloop
endfacet
facet normal 0.0 1.0 0.0
outer loop
vertex 892.887695290611 1726.60358348885 7.77645713530747
vertex 888.714404957612 1726.60358348885 9.07106781186544
vertex 893.187396558124 1726.60358348885 8.49999999999992
endloop
endfacet
facet normal 0.0 1.0 0.0
outer loop
vertex 893.187396558124 1726.60358348885 8.49999999999992
vertex 888.714404957612 1726.60358348885 9.07106781186544
vertex 893.664152425918 1726.60358348885 9.12132034355957
endloop
endfacet
facet normal 0.0 1.0 0.0
outer loop
vertex 893.664152425918 1726.60358348885 9.12132034355957
vertex 888.714404957612 1726.60358348885 9.07106781186544
vertex 890.785472769478 1726.60358348885 10.6602540378443
endloop
endfacet
facet normal 0.0 1.0 0.0
outer loop
vertex 893.664152425918 1726.60358348885 9.12132034355957
vertex 890.785472769478 1726.60358348885 10.6602540378443
vertex 894.285472769478 1726.60358348885 9.59807621135325
endloop
endfacet
facet normal 0.0 1.0 0.0
outer loop
vertex 894.285472769478 1726.60358348885 9.59807621135325
vertex 890.785472769478 1726.60358348885 10.6602540378443
vertex 895.00901563417 1726.60358348885 9.89777747886714
endloop
endfacet
facet normal 0.0 1.0 0.0
outer loop
vertex 895.00901563417 1726.60358348885 9.89777747886714
vertex 890.785472769478 1726.60358348885 10.6602540378443
vertex 895.785472769478 1726.60358348885 9.99999999999994
endloop
endfacet
facet normal 0.0 1.0 0.0
outer loop
vertex 895.785472769478 1726.60358348885 9.99999999999994
vertex 890.785472769478 1726.60358348885 10.6602540378443
vertex 900.785472769478 1726.60358348885 10.6602540378442
endloop
endfacet
facet normal 0.0 1.0 0.0
outer loop
vertex 900.785472769478 1726.60358348885 10.6602540378442
vertex 890.785472769478 1726.60358348885 10.6602540378443
vertex 898.373663220503 1726.60358348885 11.6592582628906
endloop
endfacet
facet normal 0.0 1.0 0.0
outer loop
vertex 898.373663220503 1726.60358348885 11.6592582628906
vertex 890.785472769478 1726.60358348885 10.6602540378443
vertex 893.197282318453 1726.60358348885 11.6592582628906
endloop
endfacet
facet normal 0.0 1.0 0.0
outer loop
vertex 898.373663220503 1726.60358348885 11.6592582628906
vertex 893.197282318453 1726.60358348885 11.6592582628906
vertex 895.785472769478 1726.60358348885 11.9999999999999
endloop
endfacet
facet normal 0.0 1.0 0.0
outer loop
vertex 895.785472769478 1726.60358348885 3.99999999999986
vertex 905.444731032369 1726.60358348885 4.58819045102503
vertex 905.785472769478 1726.60358348885 2.0
endloop
endfacet
facet normal 0.0 1.0 0.0
outer loop
vertex 905.444731032369 1726.60358348885 4.58819045102503
vertex 895.785472769478 1726.60358348885 3.99999999999986
vertex 896.561929904785 1726.60358348885 4.10222252113266
endloop
endfacet
facet normal 0.0 1.0 0.0
outer loop
vertex 905.444731032369 1726.60358348885 4.58819045102503
vertex 896.561929904785 1726.60358348885 4.10222252113266
vertex 897.285472769478 1726.60358348885 4.40192378864655
endloop
endfacet
facet normal 0.0 1.0 0.0
outer loop
vertex 905.444731032369 1726.60358348885 4.58819045102503
vertex 897.285472769478 1726.60358348885 4.40192378864655
vertex 897.906793113037 1726.60358348885 4.87867965644023
endloop
endfacet
facet normal 0.0 1.0 0.0
outer loop
vertex 905.444731032369 1726.60358348885 4.58819045102503
vertex 897.906793113037 1726.60358348885 4.87867965644023
vertex 904.445726807322 1726.60358348885 6.99999999999982
endloop
endfacet
facet normal 0.0 1.0 0.0
outer loop
vertex 904.445726807322 1726.60358348885 6.99999999999982
vertex 897.906793113037 1726.60358348885 4.87867965644023
vertex 898.383548980831 1726.60358348885 5.49999999999988
endloop
endfacet
facet normal 0.0 1.0 0.0
outer loop
vertex 904.445726807322 1726.60358348885 6.99999999999982
vertex 898.383548980831 1726.60358348885 5.49999999999988
vertex 898.683250248345 1726.60358348885 6.22354286469233
endloop
endfacet
facet normal 0.0 1.0 0.0
outer loop
vertex 904.445726807322 1726.60358348885 6.99999999999982
vertex 898.683250248345 1726.60358348885 6.22354286469233
vertex 898.785472769478 1726.60358348885 6.9999999999999
endloop
endfacet
facet normal 0.0 1.0 0.0
outer loop
vertex 904.445726807322 1726.60358348885 6.99999999999982
vertex 898.785472769478 1726.60358348885 6.9999999999999
vertex 902.856540581343 1726.60358348885 9.07106781186531
endloop
endfacet
facet normal 0.0 1.0 0.0
outer loop
vertex 902.856540581343 1726.60358348885 9.07106781186531
vertex 898.785472769478 1726.60358348885 6.9999999999999
vertex 898.683250248345 1726.60358348885 7.77645713530748
endloop
endfacet
facet normal 0.0 1.0 0.0
outer loop
vertex 902.856540581343 1726.60358348885 9.07106781186531
vertex 898.683250248345 1726.60358348885 7.77645713530748
vertex 898.383548980831 1726.60358348885 8.49999999999992
endloop
endfacet
facet normal 0.0 1.0 0.0
outer loop
vertex 902.856540581343 1726.60358348885 9.07106781186531
vertex 898.383548980831 1726.60358348885 8.49999999999992
vertex 897.906793113037 1726.60358348885 9.12132034355957
endloop
endfacet
facet normal 0.0 1.0 0.0
outer loop
vertex 902.856540581343 1726.60358348885 9.07106781186531
vertex 897.906793113037 1726.60358348885 9.12132034355957
vertex 900.785472769478 1726.60358348885 10.6602540378442
endloop
endfacet
facet normal 0.0 1.0 0.0
outer loop
vertex 900.785472769478 1726.60358348885 10.6602540378442
vertex 897.906793113037 1726.60358348885 9.12132034355957
vertex 897.285472769478 1726.60358348885 9.59807621135325
endloop
endfacet
facet normal 0.0 1.0 0.0
outer loop
vertex 900.785472769478 1726.60358348885 10.6602540378442
vertex 897.285472769478 1726.60358348885 9.59807621135325
vertex 896.561929904785 1726.60358348885 9.89777747886714
endloop
endfacet
facet normal 0.0 1.0 0.0
outer loop
vertex 900.785472769478 1726.60358348885 10.6602540378442
vertex 896.561929904785 1726.60358348885 9.89777747886714
vertex 895.785472769478 1726.60358348885 9.99999999999994
endloop
endfacet
facet normal 2.54659270811785e-044 -1.0 5.3601759133869e-030
outer loop
vertex 905.444731032369 1724.60358348885 4.58819045102503
vertex 885.785472769478 1724.60358348885 2.0
vertex 905.785472769478 1724.60358348885 2.0
endloop
endfacet
facet normal 2.54659270811785e-044 -1.0 5.3601759133869e-030
outer loop
vertex 885.785472769478 1724.60358348885 2.0
vertex 905.444731032369 1724.60358348885 4.58819045102503
vertex 895.785472769478 1724.60358348885 3.99999999999986
endloop
endfacet
facet normal 2.54659270811785e-044 -1.0 5.3601759133869e-030
outer loop
vertex 895.785472769478 1724.60358348885 3.99999999999986
vertex 905.444731032369 1724.60358348885 4.58819045102503
vertex 896.561929904785 1724.60358348885 4.10222252113266
endloop
endfacet
facet normal 2.54659270811785e-044 -1.0 5.3601759133869e-030
outer loop
vertex 896.561929904785 1724.60358348885 4.10222252113266
vertex 905.444731032369 1724.60358348885 4.58819045102503
vertex 897.285472769478 1724.60358348885 4.40192378864655
endloop
endfacet
facet normal 2.54659270811785e-044 -1.0 5.3601759133869e-030
outer loop
vertex 897.285472769478 1724.60358348885 4.40192378864655
vertex 905.444731032369 1724.60358348885 4.58819045102503
vertex 897.906793113037 1724.60358348885 4.87867965644023
endloop
endfacet
facet normal 2.54659270811785e-044 -1.0 5.3601759133869e-030
outer loop
vertex 897.906793113037 1724.60358348885 4.87867965644023
vertex 905.444731032369 1724.60358348885 4.58819045102503
vertex 904.445726807322 1724.60358348885 6.99999999999982
endloop
endfacet
facet normal 2.54659270811785e-044 -1.0 5.3601759133869e-030
outer loop
vertex 897.906793113037 1724.60358348885 4.87867965644023
vertex 904.445726807322 1724.60358348885 6.99999999999982
vertex 898.383548980831 1724.60358348885 5.49999999999988
endloop
endfacet
facet normal 2.54659270811785e-044 -1.0 5.3601759133869e-030
outer loop
vertex 898.383548980831 1724.60358348885 5.49999999999988
vertex 904.445726807322 1724.60358348885 6.99999999999982
vertex 898.683250248345 1724.60358348885 6.22354286469233
endloop
endfacet
facet normal 2.54659270811785e-044 -1.0 5.3601759133869e-030
outer loop
vertex 898.683250248345 1724.60358348885 6.22354286469233
vertex 904.445726807322 1724.60358348885 6.99999999999982
vertex 898.785472769478 1724.60358348885 6.9999999999999
endloop
endfacet
facet normal 2.54659270811785e-044 -1.0 5.3601759133869e-030
outer loop
vertex 898.785472769478 1724.60358348885 6.9999999999999
vertex 904.445726807322 1724.60358348885 6.99999999999982
vertex 902.856540581343 1724.60358348885 9.07106781186531
endloop
endfacet
facet normal 2.54659270811785e-044 -1.0 5.3601759133869e-030
outer loop
vertex 898.785472769478 1724.60358348885 6.9999999999999
vertex 902.856540581343 1724.60358348885 9.07106781186531
vertex 898.683250248345 1724.60358348885 7.77645713530748
endloop
endfacet
facet normal 2.54659270811785e-044 -1.0 5.3601759133869e-030
outer loop
vertex 898.683250248345 1724.60358348885 7.77645713530748
vertex 902.856540581343 1724.60358348885 9.07106781186531
vertex 898.383548980831 1724.60358348885 8.49999999999992
endloop
endfacet
facet normal 2.54659270811785e-044 -1.0 5.3601759133869e-030
outer loop
vertex 898.383548980831 1724.60358348885 8.49999999999992
vertex 902.856540581343 1724.60358348885 9.07106781186531
vertex 897.906793113037 1724.60358348885 9.12132034355957
endloop
endfacet
facet normal 2.54659270811785e-044 -1.0 5.3601759133869e-030
outer loop
vertex 897.906793113037 1724.60358348885 9.12132034355957
vertex 902.856540581343 1724.60358348885 9.07106781186531
vertex 900.785472769478 1724.60358348885 10.6602540378442
endloop
endfacet
facet normal 2.54659270811785e-044 -1.0 5.3601759133869e-030
outer loop
vertex 897.906793113037 1724.60358348885 9.12132034355957
vertex 900.785472769478 1724.60358348885 10.6602540378442
vertex 897.285472769478 1724.60358348885 9.59807621135325
endloop
endfacet
facet normal 2.54659270811785e-044 -1.0 5.3601759133869e-030
outer loop
vertex 897.285472769478 1724.60358348885 9.59807621135325
vertex 900.785472769478 1724.60358348885 10.6602540378442
vertex 896.561929904785 1724.60358348885 9.89777747886714
endloop
endfacet
facet normal 2.54659270811785e-044 -1.0 5.3601759133869e-030
outer loop
vertex 896.561929904785 1724.60358348885 9.89777747886714
vertex 900.785472769478 1724.60358348885 10.6602540378442
vertex 895.785472769478 1724.60358348885 9.99999999999994
endloop
endfacet
facet normal 2.54659270811785e-044 -1.0 5.3601759133869e-030
outer loop
vertex 895.785472769478 1724.60358348885 3.99999999999986
vertex 886.126214506587 1724.60358348885 4.5881904510252
vertex 885.785472769478 1724.60358348885 2.0
endloop
endfacet
facet normal 2.54659270811785e-044 -1.0 5.3601759133869e-030
outer loop
vertex 886.126214506587 1724.60358348885 4.5881904510252
vertex 895.785472769478 1724.60358348885 3.99999999999986
vertex 895.00901563417 1724.60358348885 4.10222252113266
endloop
endfacet
facet normal 2.54659270811785e-044 -1.0 5.3601759133869e-030
outer loop
vertex 886.126214506587 1724.60358348885 4.5881904510252
vertex 895.00901563417 1724.60358348885 4.10222252113266
vertex 894.285472769478 1724.60358348885 4.40192378864655
endloop
endfacet
facet normal 2.54659270811785e-044 -1.0 5.3601759133869e-030
outer loop
vertex 886.126214506587 1724.60358348885 4.5881904510252
vertex 894.285472769478 1724.60358348885 4.40192378864655
vertex 893.664152425918 1724.60358348885 4.87867965644023
endloop
endfacet
facet normal 2.54659270811785e-044 -1.0 5.3601759133869e-030
outer loop
vertex 886.126214506587 1724.60358348885 4.5881904510252
vertex 893.664152425918 1724.60358348885 4.87867965644023
vertex 887.125218731633 1724.60358348885 6.99999999999998
endloop
endfacet
facet normal 2.54659270811785e-044 -1.0 5.3601759133869e-030
outer loop
vertex 887.125218731633 1724.60358348885 6.99999999999998
vertex 893.664152425918 1724.60358348885 4.87867965644023
vertex 893.187396558124 1724.60358348885 5.49999999999988
endloop
endfacet
facet normal 2.54659270811785e-044 -1.0 5.3601759133869e-030
outer loop
vertex 887.125218731633 1724.60358348885 6.99999999999998
vertex 893.187396558124 1724.60358348885 5.49999999999988
vertex 892.887695290611 1724.60358348885 6.22354286469233
endloop
endfacet
facet normal 2.54659270811785e-044 -1.0 5.3601759133869e-030
outer loop
vertex 887.125218731633 1724.60358348885 6.99999999999998
vertex 892.887695290611 1724.60358348885 6.22354286469233
vertex 892.785472769478 1724.60358348885 6.9999999999999
endloop
endfacet
facet normal 2.54659270811785e-044 -1.0 5.3601759133869e-030
outer loop
vertex 887.125218731633 1724.60358348885 6.99999999999998
vertex 892.785472769478 1724.60358348885 6.9999999999999
vertex 892.887695290611 1724.60358348885 7.77645713530747
endloop
endfacet
facet normal 2.54659270811785e-044 -1.0 5.3601759133869e-030
outer loop
vertex 887.125218731633 1724.60358348885 6.99999999999998
vertex 892.887695290611 1724.60358348885 7.77645713530747
vertex 888.714404957612 1724.60358348885 9.07106781186544
endloop
endfacet
facet normal 2.54659270811785e-044 -1.0 5.3601759133869e-030
outer loop
vertex 888.714404957612 1724.60358348885 9.07106781186544
vertex 892.887695290611 1724.60358348885 7.77645713530747
vertex 893.187396558124 1724.60358348885 8.49999999999992
endloop
endfacet
facet normal 2.54659270811785e-044 -1.0 5.3601759133869e-030
outer loop
vertex 888.714404957612 1724.60358348885 9.07106781186544
vertex 893.187396558124 1724.60358348885 8.49999999999992
vertex 893.664152425918 1724.60358348885 9.12132034355957
endloop
endfacet
facet normal 2.54659270811785e-044 -1.0 5.3601759133869e-030
outer loop
vertex 888.714404957612 1724.60358348885 9.07106781186544
vertex 893.664152425918 1724.60358348885 9.12132034355957
vertex 890.785472769478 1724.60358348885 10.6602540378443
endloop
endfacet
facet normal 2.54659270811785e-044 -1.0 5.3601759133869e-030
outer loop
vertex 890.785472769478 1724.60358348885 10.6602540378443
vertex 893.664152425918 1724.60358348885 9.12132034355957
vertex 894.285472769478 1724.60358348885 9.59807621135325
endloop
endfacet
facet normal 2.54659270811785e-044 -1.0 5.3601759133869e-030
outer loop
vertex 890.785472769478 1724.60358348885 10.6602540378443
vertex 894.285472769478 1724.60358348885 9.59807621135325
vertex 895.00901563417 1724.60358348885 9.89777747886714
endloop
endfacet
facet normal 2.54659270811785e-044 -1.0 5.3601759133869e-030
outer loop
vertex 890.785472769478 1724.60358348885 10.6602540378443
vertex 895.00901563417 1724.60358348885 9.89777747886714
vertex 895.785472769478 1724.60358348885 9.99999999999994
endloop
endfacet
facet normal 2.54659270811785e-044 -1.0 5.3601759133869e-030
outer loop
vertex 890.785472769478 1724.60358348885 10.6602540378443
vertex 895.785472769478 1724.60358348885 9.99999999999994
vertex 900.785472769478 1724.60358348885 10.6602540378442
endloop
endfacet
facet normal 2.54659270811785e-044 -1.0 5.3601759133869e-030
outer loop
vertex 890.785472769478 1724.60358348885 10.6602540378443
vertex 900.785472769478 1724.60358348885 10.6602540378442
vertex 898.373663220503 1724.60358348885 11.6592582628906
endloop
endfacet
facet normal 2.54659270811785e-044 -1.0 5.3601759133869e-030
outer loop
vertex 890.785472769478 1724.60358348885 10.6602540378443
vertex 898.373663220503 1724.60358348885 11.6592582628906
vertex 893.197282318453 1724.60358348885 11.6592582628906
endloop
endfacet
facet normal 2.54659270811785e-044 -1.0 5.3601759133869e-030
outer loop
vertex 893.197282318453 1724.60358348885 11.6592582628906
vertex 898.373663220503 1724.60358348885 11.6592582628906
vertex 895.785472769478 1724.60358348885 11.9999999999999
endloop
endfacet
facet normal -0.965925826289067 -4.60443994908703e-018 0.258819045102528
outer loop
vertex 886.126214506587 1726.60358348885 4.5881904510252
vertex 885.785472769478 1724.60358348885 2.0
vertex 886.126214506587 1724.60358348885 4.5881904510252
endloop
endfacet
facet normal -0.99144486137381 -9.13009665405325e-018 0.130526192220056
outer loop
vertex 885.785472769478 1724.60358348885 2.0
vertex 886.126214506587 1726.60358348885 4.5881904510252
vertex 885.785472769478 1726.60358348885 2.0
endloop
endfacet
facet normal -0.86602540378444 0.0 0.499999999999997
outer loop
vertex 887.125218731633 1726.60358348885 6.99999999999998
vertex 886.126214506587 1724.60358348885 4.5881904510252
vertex 887.125218731633 1724.60358348885 6.99999999999998
endloop
endfacet
facet normal -0.965925826289067 -4.60443994908703e-018 0.258819045102528
outer loop
vertex 886.126214506587 1724.60358348885 4.5881904510252
vertex 887.125218731633 1726.60358348885 6.99999999999998
vertex 886.126214506587 1726.60358348885 4.5881904510252
endloop
endfacet
facet normal -0.707106781186553 0.0 0.707106781186542
outer loop
vertex 888.714404957612 1726.60358348885 9.07106781186544
vertex 887.125218731633 1724.60358348885 6.99999999999998
vertex 888.714404957612 1724.60358348885 9.07106781186544
endloop
endfacet
facet normal -0.86602540378444 0.0 0.499999999999997
outer loop
vertex 887.125218731633 1724.60358348885 6.99999999999998
vertex 888.714404957612 1726.60358348885 9.07106781186544
vertex 887.125218731633 1726.60358348885 6.99999999999998
endloop
endfacet
facet normal -0.499999999999996 0.0 0.866025403784441
outer loop
vertex 890.785472769478 1724.60358348885 10.6602540378443
vertex 888.714404957612 1726.60358348885 9.07106781186544
vertex 888.714404957612 1724.60358348885 9.07106781186544
endloop
endfacet
facet normal -0.707106781186553 0.0 0.707106781186542
outer loop
vertex 888.714404957612 1726.60358348885 9.07106781186544
vertex 890.785472769478 1724.60358348885 10.6602540378443
vertex 890.785472769478 1726.60358348885 10.6602540378443
endloop
endfacet
facet normal -0.258819045102514 -1.07205471701046e-027 0.96592582628907
outer loop
vertex 893.197282318453 1724.60358348885 11.6592582628906
vertex 890.785472769478 1726.60358348885 10.6602540378443
vertex 890.785472769478 1724.60358348885 10.6602540378443
endloop
endfacet
facet normal -0.499999999999996 0.0 0.866025403784441
outer loop
vertex 890.785472769478 1726.60358348885 10.6602540378443
vertex 893.197282318453 1724.60358348885 11.6592582628906
vertex 893.197282318453 1726.60358348885 11.6592582628906
endloop
endfacet
facet normal -0.130526192220046 -2.12576628058315e-027 0.991444861373811
outer loop
vertex 895.785472769478 1724.60358348885 11.9999999999999
vertex 893.197282318453 1726.60358348885 11.6592582628906
vertex 893.197282318453 1724.60358348885 11.6592582628906
endloop
endfacet
facet normal -0.258819045102514 -1.07205471701046e-027 0.96592582628907
outer loop
vertex 893.197282318453 1726.60358348885 11.6592582628906
vertex 895.785472769478 1724.60358348885 11.9999999999999
vertex 895.785472769478 1726.60358348885 11.9999999999999
endloop
endfacet
facet normal 0.258819045102525 -4.37177421013232e-018 0.965925826289067
outer loop
vertex 898.373663220503 1724.60358348885 11.6592582628906
vertex 895.785472769478 1726.60358348885 11.9999999999999
vertex 895.785472769478 1724.60358348885 11.9999999999999
endloop
endfacet
facet normal 0.130526192220053 -8.66874615144448e-018 0.99144486137381
outer loop
vertex 895.785472769478 1726.60358348885 11.9999999999999
vertex 898.373663220503 1724.60358348885 11.6592582628906
vertex 898.373663220503 1726.60358348885 11.6592582628906
endloop
endfacet
facet normal 0.500000000000008 0.0 0.866025403784434
outer loop
vertex 900.785472769478 1724.60358348885 10.6602540378442
vertex 898.373663220503 1726.60358348885 11.6592582628906
vertex 898.373663220503 1724.60358348885 11.6592582628906
endloop
endfacet
facet normal 0.258819045102525 -4.37177421013232e-018 0.965925826289067
outer loop
vertex 898.373663220503 1726.60358348885 11.6592582628906
vertex 900.785472769478 1724.60358348885 10.6602540378442
vertex 900.785472769478 1726.60358348885 10.6602540378442
endloop
endfacet
facet normal 0.707106781186559 0.0 0.707106781186536
outer loop
vertex 902.856540581343 1724.60358348885 9.07106781186531
vertex 900.785472769478 1726.60358348885 10.6602540378442
vertex 900.785472769478 1724.60358348885 10.6602540378442
endloop
endfacet
facet normal 0.500000000000008 0.0 0.866025403784434
outer loop
vertex 900.785472769478 1726.60358348885 10.6602540378442
vertex 902.856540581343 1724.60358348885 9.07106781186531
vertex 902.856540581343 1726.60358348885 9.07106781186531
endloop
endfacet
facet normal 0.866025403784443 0.0 0.499999999999993
outer loop
vertex 904.445726807322 1726.60358348885 6.99999999999982
vertex 902.856540581343 1724.60358348885 9.07106781186531
vertex 904.445726807322 1724.60358348885 6.99999999999982
endloop
endfacet
facet normal 0.707106781186559 0.0 0.707106781186536
outer loop
vertex 902.856540581343 1724.60358348885 9.07106781186531
vertex 904.445726807322 1726.60358348885 6.99999999999982
vertex 902.856540581343 1726.60358348885 9.07106781186531
endloop
endfacet
facet normal 0.965925826289066 0.0 0.258819045102531
outer loop
vertex 905.444731032369 1726.60358348885 4.58819045102503
vertex 904.445726807322 1724.60358348885 6.99999999999982
vertex 905.444731032369 1724.60358348885 4.58819045102503
endloop
endfacet
facet normal 0.866025403784443 0.0 0.499999999999993
outer loop
vertex 904.445726807322 1724.60358348885 6.99999999999982
vertex 905.444731032369 1726.60358348885 4.58819045102503
vertex 904.445726807322 1726.60358348885 6.99999999999982
endloop
endfacet
facet normal 0.991444861373809 0.0 0.130526192220065
outer loop
vertex 905.785472769478 1726.60358348885 2.0
vertex 905.444731032369 1724.60358348885 4.58819045102503
vertex 905.785472769478 1724.60358348885 2.0
endloop
endfacet
facet normal 0.965925826289066 0.0 0.258819045102531
outer loop
vertex 905.444731032369 1724.60358348885 4.58819045102503
vertex 905.785472769478 1726.60358348885 2.0
vertex 905.444731032369 1726.60358348885 4.58819045102503
endloop
endfacet
facet normal 1.54965645729495e-014 -1.0 2.54734754639677e-014
outer loop
vertex 905.444731032369 1734.60358348885 4.58819045102521
vertex 885.785472769478 1734.60358348885 2.0
vertex 905.785472769478 1734.60358348885 2.0
endloop
endfacet
facet normal 1.54965645729495e-014 -1.0 2.54734754639677e-014
outer loop
vertex 885.785472769478 1734.60358348885 2.0
vertex 905.444731032369 1734.60358348885 4.58819045102521
vertex 895.785472769478 1734.60358348885 4.00000000000004
endloop
endfacet
facet normal 1.54965645729495e-014 -1.0 2.54734754639677e-014
outer loop
vertex 895.785472769478 1734.60358348885 4.00000000000004
vertex 905.444731032369 1734.60358348885 4.58819045102521
vertex 896.561929904785 1734.60358348885 4.10222252113284
endloop
endfacet
facet normal 1.54965645729495e-014 -1.0 2.54734754639677e-014
outer loop
vertex 896.561929904785 1734.60358348885 4.10222252113284
vertex 905.444731032369 1734.60358348885 4.58819045102521
vertex 897.285472769478 1734.60358348885 4.40192378864673
endloop
endfacet
facet normal 1.54965645729495e-014 -1.0 2.54734754639677e-014
outer loop
vertex 897.285472769478 1734.60358348885 4.40192378864673
vertex 905.444731032369 1734.60358348885 4.58819045102521
vertex 897.906793113037 1734.60358348885 4.87867965644041
endloop
endfacet
facet normal 1.54965645729495e-014 -1.0 2.54734754639677e-014
outer loop
vertex 897.906793113037 1734.60358348885 4.87867965644041
vertex 905.444731032369 1734.60358348885 4.58819045102521
vertex 904.445726807322 1734.60358348885 7.0
endloop
endfacet
facet normal 1.54965645729495e-014 -1.0 2.54734754639677e-014
outer loop
vertex 897.906793113037 1734.60358348885 4.87867965644041
vertex 904.445726807322 1734.60358348885 7.0
vertex 898.383548980831 1734.60358348885 5.50000000000006
endloop
endfacet
facet normal 1.54965645729495e-014 -1.0 2.54734754639677e-014
outer loop
vertex 898.383548980831 1734.60358348885 5.50000000000006
vertex 904.445726807322 1734.60358348885 7.0
vertex 898.683250248345 1734.60358348885 6.22354286469251
endloop
endfacet
facet normal 1.54965645729495e-014 -1.0 2.54734754639677e-014
outer loop
vertex 898.683250248345 1734.60358348885 6.22354286469251
vertex 904.445726807322 1734.60358348885 7.0
vertex 898.785472769478 1734.60358348885 7.00000000000008
endloop
endfacet
facet normal 1.54965645729495e-014 -1.0 2.54734754639677e-014
outer loop
vertex 898.785472769478 1734.60358348885 7.00000000000008
vertex 904.445726807322 1734.60358348885 7.0
vertex 902.856540581343 1734.60358348885 9.07106781186549
endloop
endfacet
facet normal 1.54965645729495e-014 -1.0 2.54734754639677e-014
outer loop
vertex 898.785472769478 1734.60358348885 7.00000000000008
vertex 902.856540581343 1734.60358348885 9.07106781186549
vertex 898.683250248345 1734.60358348885 7.77645713530765
endloop
endfacet
facet normal 1.54965645729495e-014 -1.0 2.54734754639677e-014
outer loop
vertex 898.683250248345 1734.60358348885 7.77645713530765
vertex 902.856540581343 1734.60358348885 9.07106781186549
vertex 898.383548980831 1734.60358348885 8.5000000000001
endloop
endfacet
facet normal 1.54965645729495e-014 -1.0 2.54734754639677e-014
outer loop
vertex 898.383548980831 1734.60358348885 8.5000000000001
vertex 902.856540581343 1734.60358348885 9.07106781186549
vertex 897.906793113037 1734.60358348885 9.12132034355975
endloop
endfacet
facet normal 1.54965645729495e-014 -1.0 2.54734754639677e-014
outer loop
vertex 897.906793113037 1734.60358348885 9.12132034355975
vertex 902.856540581343 1734.60358348885 9.07106781186549
vertex 900.785472769478 1734.60358348885 10.6602540378444
endloop
endfacet
facet normal 1.54965645729495e-014 -1.0 2.54734754639677e-014
outer loop
vertex 897.906793113037 1734.60358348885 9.12132034355975
vertex 900.785472769478 1734.60358348885 10.6602540378444
vertex 897.285472769478 1734.60358348885 9.59807621135343
endloop
endfacet
facet normal 1.54965645729495e-014 -1.0 2.54734754639677e-014
outer loop
vertex 897.285472769478 1734.60358348885 9.59807621135343
vertex 900.785472769478 1734.60358348885 10.6602540378444
vertex 896.561929904785 1734.60358348885 9.89777747886732
endloop
endfacet
facet normal 1.54965645729495e-014 -1.0 2.54734754639677e-014
outer loop
vertex 896.561929904785 1734.60358348885 9.89777747886732
vertex 900.785472769478 1734.60358348885 10.6602540378444
vertex 895.785472769478 1734.60358348885 10.0000000000001
endloop
endfacet
facet normal 1.54965645729495e-014 -1.0 2.54734754639677e-014
outer loop
vertex 895.785472769478 1734.60358348885 4.00000000000004
vertex 886.126214506587 1734.60358348885 4.58819045102538
vertex 885.785472769478 1734.60358348885 2.0
endloop
endfacet
facet normal 1.54965645729495e-014 -1.0 2.54734754639677e-014
outer loop
vertex 886.126214506587 1734.60358348885 4.58819045102538
vertex 895.785472769478 1734.60358348885 4.00000000000004
vertex 895.00901563417 1734.60358348885 4.10222252113284
endloop
endfacet
facet normal 1.54965645729495e-014 -1.0 2.54734754639677e-014
outer loop
vertex 886.126214506587 1734.60358348885 4.58819045102538
vertex 895.00901563417 1734.60358348885 4.10222252113284
vertex 894.285472769478 1734.60358348885 4.40192378864673
endloop
endfacet
facet normal 1.54965645729495e-014 -1.0 2.54734754639677e-014
outer loop
vertex 886.126214506587 1734.60358348885 4.58819045102538
vertex 894.285472769478 1734.60358348885 4.40192378864673
vertex 893.664152425918 1734.60358348885 4.87867965644041
endloop
endfacet
facet normal 1.54965645729495e-014 -1.0 2.54734754639677e-014
outer loop
vertex 886.126214506587 1734.60358348885 4.58819045102538
vertex 893.664152425918 1734.60358348885 4.87867965644041
vertex 887.125218731633 1734.60358348885 7.00000000000016
endloop
endfacet
facet normal 1.54965645729495e-014 -1.0 2.54734754639677e-014
outer loop
vertex 887.125218731633 1734.60358348885 7.00000000000016
vertex 893.664152425918 1734.60358348885 4.87867965644041
vertex 893.187396558124 1734.60358348885 5.50000000000006
endloop
endfacet
facet normal 1.54965645729495e-014 -1.0 2.54734754639677e-014
outer loop
vertex 887.125218731633 1734.60358348885 7.00000000000016
vertex 893.187396558124 1734.60358348885 5.50000000000006
vertex 892.887695290611 1734.60358348885 6.22354286469251
endloop
endfacet
facet normal 1.54965645729495e-014 -1.0 2.54734754639677e-014
outer loop
vertex 887.125218731633 1734.60358348885 7.00000000000016
vertex 892.887695290611 1734.60358348885 6.22354286469251
vertex 892.785472769478 1734.60358348885 7.00000000000008
endloop
endfacet
facet normal 1.54965645729495e-014 -1.0 2.54734754639677e-014
outer loop
vertex 887.125218731633 1734.60358348885 7.00000000000016
vertex 892.785472769478 1734.60358348885 7.00000000000008
vertex 892.887695290611 1734.60358348885 7.77645713530766
endloop
endfacet
facet normal 1.54965645729495e-014 -1.0 2.54734754639677e-014
outer loop
vertex 887.125218731633 1734.60358348885 7.00000000000016
vertex 892.887695290611 1734.60358348885 7.77645713530766
vertex 888.714404957612 1734.60358348885 9.07106781186562
endloop
endfacet
facet normal 1.54965645729495e-014 -1.0 2.54734754639677e-014
outer loop
vertex 888.714404957612 1734.60358348885 9.07106781186562
vertex 892.887695290611 1734.60358348885 7.77645713530766
vertex 893.187396558124 1734.60358348885 8.5000000000001
endloop
endfacet
facet normal 1.54965645729495e-014 -1.0 2.54734754639677e-014
outer loop
vertex 888.714404957612 1734.60358348885 9.07106781186562
vertex 893.187396558124 1734.60358348885 8.5000000000001
vertex 893.664152425918 1734.60358348885 9.12132034355975
endloop
endfacet
facet normal 1.54965645729495e-014 -1.0 2.54734754639677e-014
outer loop
vertex 888.714404957612 1734.60358348885 9.07106781186562
vertex 893.664152425918 1734.60358348885 9.12132034355975
vertex 890.785472769478 1734.60358348885 10.6602540378445
endloop
endfacet
facet normal 1.54965645729495e-014 -1.0 2.54734754639677e-014
outer loop
vertex 890.785472769478 1734.60358348885 10.6602540378445
vertex 893.664152425918 1734.60358348885 9.12132034355975
vertex 894.285472769478 1734.60358348885 9.59807621135343
endloop
endfacet
facet normal 1.54965645729495e-014 -1.0 2.54734754639677e-014
outer loop
vertex 890.785472769478 1734.60358348885 10.6602540378445
vertex 894.285472769478 1734.60358348885 9.59807621135343
vertex 895.00901563417 1734.60358348885 9.89777747886732
endloop
endfacet
facet normal 1.54965645729495e-014 -1.0 2.54734754639677e-014
outer loop
vertex 890.785472769478 1734.60358348885 10.6602540378445
vertex 895.00901563417 1734.60358348885 9.89777747886732
vertex 895.785472769478 1734.60358348885 10.0000000000001
endloop
endfacet
facet normal 1.54965645729495e-014 -1.0 2.54734754639677e-014
outer loop
vertex 890.785472769478 1734.60358348885 10.6602540378445
vertex 895.785472769478 1734.60358348885 10.0000000000001
vertex 900.785472769478 1734.60358348885 10.6602540378444
endloop
endfacet
facet normal 1.54965645729495e-014 -1.0 2.54734754639677e-014
outer loop
vertex 890.785472769478 1734.60358348885 10.6602540378445
vertex 900.785472769478 1734.60358348885 10.6602540378444
vertex 898.373663220503 1734.60358348885 11.6592582628907
endloop
endfacet
facet normal 1.54965645729495e-014 -1.0 2.54734754639677e-014
outer loop
vertex 890.785472769478 1734.60358348885 10.6602540378445
vertex 898.373663220503 1734.60358348885 11.6592582628907
vertex 893.197282318453 1734.60358348885 11.6592582628908
endloop
endfacet
facet normal 1.54965645729495e-014 -1.0 2.54734754639677e-014
outer loop
vertex 893.197282318453 1734.60358348885 11.6592582628908
vertex 898.373663220503 1734.60358348885 11.6592582628907
vertex 895.785472769478 1734.60358348885 12.0000000000001
endloop
endfacet
facet normal 0.0 1.0 0.0
outer loop
vertex 886.126214506587 1736.60358348885 4.58819045102538
vertex 905.785472769478 1736.60358348885 2.0
vertex 885.785472769478 1736.60358348885 2.0
endloop
endfacet
facet normal 0.0 1.0 0.0
outer loop
vertex 905.785472769478 1736.60358348885 2.0
vertex 886.126214506587 1736.60358348885 4.58819045102538
vertex 895.785472769478 1736.60358348885 4.00000000000004
endloop
endfacet
facet normal 0.0 1.0 0.0
outer loop
vertex 895.785472769478 1736.60358348885 4.00000000000004
vertex 886.126214506587 1736.60358348885 4.58819045102538
vertex 895.00901563417 1736.60358348885 4.10222252113284
endloop
endfacet
facet normal 0.0 1.0 0.0
outer loop
vertex 895.00901563417 1736.60358348885 4.10222252113284
vertex 886.126214506587 1736.60358348885 4.58819045102538
vertex 894.285472769478 1736.60358348885 4.40192378864673
endloop
endfacet
facet normal 0.0 1.0 0.0
outer loop
vertex 894.285472769478 1736.60358348885 4.40192378864673
vertex 886.126214506587 1736.60358348885 4.58819045102538
vertex 893.664152425918 1736.60358348885 4.87867965644041
endloop
endfacet
facet normal 0.0 1.0 0.0
outer loop
vertex 893.664152425918 1736.60358348885 4.87867965644041
vertex 886.126214506587 1736.60358348885 4.58819045102538
vertex 887.125218731633 1736.60358348885 7.00000000000016
endloop
endfacet
facet normal 0.0 1.0 0.0
outer loop
vertex 893.664152425918 1736.60358348885 4.87867965644041
vertex 887.125218731633 1736.60358348885 7.00000000000016
vertex 893.187396558124 1736.60358348885 5.50000000000006
endloop
endfacet
facet normal 0.0 1.0 0.0
outer loop
vertex 893.187396558124 1736.60358348885 5.50000000000006
vertex 887.125218731633 1736.60358348885 7.00000000000016
vertex 892.887695290611 1736.60358348885 6.22354286469251
endloop
endfacet
facet normal 0.0 1.0 0.0
outer loop
vertex 892.887695290611 1736.60358348885 6.22354286469251
vertex 887.125218731633 1736.60358348885 7.00000000000016
vertex 892.785472769478 1736.60358348885 7.00000000000008
endloop
endfacet
facet normal 0.0 1.0 0.0
outer loop
vertex 892.785472769478 1736.60358348885 7.00000000000008
vertex 887.125218731633 1736.60358348885 7.00000000000016
vertex 892.887695290611 1736.60358348885 7.77645713530766
endloop
endfacet
facet normal 0.0 1.0 0.0
outer loop
vertex 892.887695290611 1736.60358348885 7.77645713530766
vertex 887.125218731633 1736.60358348885 7.00000000000016
vertex 888.714404957612 1736.60358348885 9.07106781186562
endloop
endfacet
facet normal 0.0 1.0 0.0
outer loop
vertex 892.887695290611 1736.60358348885 7.77645713530766
vertex 888.714404957612 1736.60358348885 9.07106781186562
vertex 893.187396558124 1736.60358348885 8.5000000000001
endloop
endfacet
facet normal 0.0 1.0 0.0
outer loop
vertex 893.187396558124 1736.60358348885 8.5000000000001
vertex 888.714404957612 1736.60358348885 9.07106781186562
vertex 893.664152425918 1736.60358348885 9.12132034355975
endloop
endfacet
facet normal 0.0 1.0 0.0
outer loop
vertex 893.664152425918 1736.60358348885 9.12132034355975
vertex 888.714404957612 1736.60358348885 9.07106781186562
vertex 890.785472769478 1736.60358348885 10.6602540378445
endloop
endfacet
facet normal 0.0 1.0 0.0
outer loop
vertex 893.664152425918 1736.60358348885 9.12132034355975
vertex 890.785472769478 1736.60358348885 10.6602540378445
vertex 894.285472769478 1736.60358348885 9.59807621135343
endloop
endfacet
facet normal 0.0 1.0 0.0
outer loop
vertex 894.285472769478 1736.60358348885 9.59807621135343
vertex 890.785472769478 1736.60358348885 10.6602540378445
vertex 895.00901563417 1736.60358348885 9.89777747886732
endloop
endfacet
facet normal 0.0 1.0 0.0
outer loop
vertex 895.00901563417 1736.60358348885 9.89777747886732
vertex 890.785472769478 1736.60358348885 10.6602540378445
vertex 895.785472769478 1736.60358348885 10.0000000000001
endloop
endfacet
facet normal 0.0 1.0 0.0
outer loop
vertex 895.785472769478 1736.60358348885 10.0000000000001
vertex 890.785472769478 1736.60358348885 10.6602540378445
vertex 900.785472769478 1736.60358348885 10.6602540378444
endloop
endfacet
facet normal 0.0 1.0 0.0
outer loop
vertex 900.785472769478 1736.60358348885 10.6602540378444
vertex 890.785472769478 1736.60358348885 10.6602540378445
vertex 898.373663220503 1736.60358348885 11.6592582628907
endloop
endfacet
facet normal 0.0 1.0 0.0
outer loop
vertex 898.373663220503 1736.60358348885 11.6592582628907
vertex 890.785472769478 1736.60358348885 10.6602540378445
vertex 893.197282318453 1736.60358348885 11.6592582628908
endloop
endfacet
facet normal 0.0 1.0 0.0
outer loop
vertex 898.373663220503 1736.60358348885 11.6592582628907
vertex 893.197282318453 1736.60358348885 11.6592582628908
vertex 895.785472769478 1736.60358348885 12.0000000000001
endloop
endfacet
facet normal 0.0 1.0 0.0
outer loop
vertex 895.785472769478 1736.60358348885 4.00000000000004
vertex 905.444731032369 1736.60358348885 4.58819045102521
vertex 905.785472769478 1736.60358348885 2.0
endloop
endfacet
facet normal 0.0 1.0 0.0
outer loop
vertex 905.444731032369 1736.60358348885 4.58819045102521
vertex 895.785472769478 1736.60358348885 4.00000000000004
vertex 896.561929904785 1736.60358348885 4.10222252113284
endloop
endfacet
facet normal 0.0 1.0 0.0
outer loop
vertex 905.444731032369 1736.60358348885 4.58819045102521
vertex 896.561929904785 1736.60358348885 4.10222252113284
vertex 897.285472769478 1736.60358348885 4.40192378864673
endloop
endfacet
facet normal 0.0 1.0 0.0
outer loop
vertex 905.444731032369 1736.60358348885 4.58819045102521
vertex 897.285472769478 1736.60358348885 4.40192378864673
vertex 897.906793113037 1736.60358348885 4.87867965644041
endloop
endfacet
facet normal 0.0 1.0 0.0
outer loop
vertex 905.444731032369 1736.60358348885 4.58819045102521
vertex 897.906793113037 1736.60358348885 4.87867965644041
vertex 904.445726807322 1736.60358348885 7.0
endloop
endfacet
facet normal 0.0 1.0 0.0
outer loop
vertex 904.445726807322 1736.60358348885 7.0
vertex 897.906793113037 1736.60358348885 4.87867965644041
vertex 898.383548980831 1736.60358348885 5.50000000000006
endloop
endfacet
facet normal 0.0 1.0 0.0
outer loop
vertex 904.445726807322 1736.60358348885 7.0
vertex 898.383548980831 1736.60358348885 5.50000000000006
vertex 898.683250248345 1736.60358348885 6.22354286469251
endloop
endfacet
facet normal 0.0 1.0 0.0
outer loop
vertex 904.445726807322 1736.60358348885 7.0
vertex 898.683250248345 1736.60358348885 6.22354286469251
vertex 898.785472769478 1736.60358348885 7.00000000000008
endloop
endfacet
facet normal 0.0 1.0 0.0
outer loop
vertex 904.445726807322 1736.60358348885 7.0
vertex 898.785472769478 1736.60358348885 7.00000000000008
vertex 902.856540581343 1736.60358348885 9.07106781186549
endloop
endfacet
facet normal 0.0 1.0 0.0
outer loop
vertex 902.856540581343 1736.60358348885 9.07106781186549
vertex 898.785472769478 1736.60358348885 7.00000000000008
vertex 898.683250248345 1736.60358348885 7.77645713530765
endloop
endfacet
facet normal 0.0 1.0 0.0
outer loop
vertex 902.856540581343 1736.60358348885 9.07106781186549
vertex 898.683250248345 1736.60358348885 7.77645713530765
vertex 898.383548980831 1736.60358348885 8.5000000000001
endloop
endfacet
facet normal 0.0 1.0 0.0
outer loop
vertex 902.856540581343 1736.60358348885 9.07106781186549
vertex 898.383548980831 1736.60358348885 8.5000000000001
vertex 897.906793113037 1736.60358348885 9.12132034355975
endloop
endfacet
facet normal 0.0 1.0 0.0
outer loop
vertex 902.856540581343 1736.60358348885 9.07106781186549
vertex 897.906793113037 1736.60358348885 9.12132034355975
vertex 900.785472769478 1736.60358348885 10.6602540378444
endloop
endfacet
facet normal 0.0 1.0 0.0
outer loop
vertex 900.785472769478 1736.60358348885 10.6602540378444
vertex 897.906793113037 1736.60358348885 9.12132034355975
vertex 897.285472769478 1736.60358348885 9.59807621135343
endloop
endfacet
facet normal 0.0 1.0 0.0
outer loop
vertex 900.785472769478 1736.60358348885 10.6602540378444
vertex 897.285472769478 1736.60358348885 9.59807621135343
vertex 896.561929904785 1736.60358348885 9.89777747886732
endloop
endfacet
facet normal 0.0 1.0 0.0
outer loop
vertex 900.785472769478 1736.60358348885 10.6602540378444
vertex 896.561929904785 1736.60358348885 9.89777747886732
vertex 895.785472769478 1736.60358348885 10.0000000000001
endloop
endfacet
facet normal 0.99144486137381 -7.60567845916477e-018 0.130526192220056
outer loop
vertex 905.785472769478 1736.60358348885 2.0
vertex 905.444731032369 1734.60358348885 4.58819045102521
vertex 905.785472769478 1734.60358348885 2.0
endloop
endfacet
facet normal 0.965925826289068 -3.83565377938728e-018 0.258819045102521
outer loop
vertex 905.444731032369 1734.60358348885 4.58819045102521
vertex 905.785472769478 1736.60358348885 2.0
vertex 905.444731032369 1736.60358348885 4.58819045102521
endloop
endfacet
facet normal 0.965925826289067 -3.83565377938711e-018 0.258819045102526
outer loop
vertex 905.444731032369 1736.60358348885 4.58819045102521
vertex 904.445726807322 1734.60358348885 7.0
vertex 905.444731032369 1734.60358348885 4.58819045102521
endloop
endfacet
facet normal 0.866025403784443 0.0 0.499999999999993
outer loop
vertex 904.445726807322 1734.60358348885 7.0
vertex 905.444731032369 1736.60358348885 4.58819045102521
vertex 904.445726807322 1736.60358348885 7.0
endloop
endfacet
facet normal 0.866025403784443 0.0 0.499999999999993
outer loop
vertex 904.445726807322 1736.60358348885 7.0
vertex 902.856540581343 1734.60358348885 9.07106781186549
vertex 904.445726807322 1734.60358348885 7.0
endloop
endfacet
facet normal 0.707106781186559 0.0 0.707106781186536
outer loop
vertex 902.856540581343 1734.60358348885 9.07106781186549
vertex 904.445726807322 1736.60358348885 7.0
vertex 902.856540581343 1736.60358348885 9.07106781186549
endloop
endfacet
facet normal 0.707106781186559 0.0 0.707106781186536
outer loop
vertex 902.856540581343 1734.60358348885 9.07106781186549
vertex 900.785472769478 1736.60358348885 10.6602540378444
vertex 900.785472769478 1734.60358348885 10.6602540378444
endloop
endfacet
facet normal 0.500000000000007 0.0 0.866025403784435
outer loop
vertex 900.785472769478 1736.60358348885 10.6602540378444
vertex 902.856540581343 1734.60358348885 9.07106781186549
vertex 902.856540581343 1736.60358348885 9.07106781186549
endloop
endfacet
facet normal 0.500000000000007 0.0 0.866025403784435
outer loop
vertex 900.785472769478 1734.60358348885 10.6602540378444
vertex 898.373663220503 1736.60358348885 11.6592582628907
vertex 898.373663220503 1734.60358348885 11.6592582628907
endloop
endfacet
facet normal 0.25881904510253 0.0 0.965925826289066
outer loop
vertex 898.373663220503 1736.60358348885 11.6592582628907
vertex 900.785472769478 1734.60358348885 10.6602540378444
vertex 900.785472769478 1736.60358348885 10.6602540378444
endloop
endfacet
facet normal 0.25881904510253 0.0 0.965925826289066
outer loop
vertex 898.373663220503 1734.60358348885 11.6592582628907
vertex 895.785472769478 1736.60358348885 12.0000000000001
vertex 895.785472769478 1734.60358348885 12.0000000000001
endloop
endfacet
facet normal 0.130526192220063 0.0 0.991444861373809
outer loop
vertex 895.785472769478 1736.60358348885 12.0000000000001
vertex 898.373663220503 1734.60358348885 11.6592582628907
vertex 898.373663220503 1736.60358348885 11.6592582628907
endloop
endfacet
facet normal -0.130526192220036 0.0 0.991444861373812
outer loop
vertex 895.785472769478 1734.60358348885 12.0000000000001
vertex 893.197282318453 1736.60358348885 11.6592582628908
vertex 893.197282318453 1734.60358348885 11.6592582628908
endloop
endfacet
facet normal -0.25881904510251 0.0 0.965925826289071
outer loop
vertex 893.197282318453 1736.60358348885 11.6592582628908
vertex 895.785472769478 1734.60358348885 12.0000000000001
vertex 895.785472769478 1736.60358348885 12.0000000000001
endloop
endfacet
facet normal -0.25881904510251 0.0 0.965925826289071
outer loop
vertex 893.197282318453 1734.60358348885 11.6592582628908
vertex 890.785472769478 1736.60358348885 10.6602540378445
vertex 890.785472769478 1734.60358348885 10.6602540378445
endloop
endfacet
facet normal -0.499999999999996 0.0 0.866025403784441
outer loop
vertex 890.785472769478 1736.60358348885 10.6602540378445
vertex 893.197282318453 1734.60358348885 11.6592582628908
vertex 893.197282318453 1736.60358348885 11.6592582628908
endloop
endfacet
facet normal -0.499999999999996 0.0 0.866025403784441
outer loop
vertex 890.785472769478 1734.60358348885 10.6602540378445
vertex 888.714404957612 1736.60358348885 9.07106781186562
vertex 888.714404957612 1734.60358348885 9.07106781186562
endloop
endfacet
facet normal -0.707106781186553 0.0 0.707106781186542
outer loop
vertex 888.714404957612 1736.60358348885 9.07106781186562
vertex 890.785472769478 1734.60358348885 10.6602540378445
vertex 890.785472769478 1736.60358348885 10.6602540378445
endloop
endfacet
facet normal -0.707106781186553 0.0 0.707106781186542
outer loop
vertex 888.714404957612 1736.60358348885 9.07106781186562
vertex 887.125218731633 1734.60358348885 7.00000000000016
vertex 888.714404957612 1734.60358348885 9.07106781186562
endloop
endfacet
facet normal -0.866025403784441 0.0 0.499999999999997
outer loop
vertex 887.125218731633 1734.60358348885 7.00000000000016
vertex 888.714404957612 1736.60358348885 9.07106781186562
vertex 887.125218731633 1736.60358348885 7.00000000000016
endloop
endfacet
facet normal -0.866025403784441 0.0 0.499999999999997
outer loop
vertex 887.125218731633 1736.60358348885 7.00000000000016
vertex 886.126214506587 1734.60358348885 4.58819045102538
vertex 887.125218731633 1734.60358348885 7.00000000000016
endloop
endfacet
facet normal -0.965925826289069 7.68786170197167e-019 0.258819045102518
outer loop
vertex 886.126214506587 1734.60358348885 4.58819045102538
vertex 887.125218731633 1736.60358348885 7.00000000000016
vertex 886.126214506587 1736.60358348885 4.58819045102538
endloop
endfacet
facet normal -0.965925826289069 7.68786170197167e-019 0.258819045102518
outer loop
vertex 886.126214506587 1734.60358348885 4.58819045102538
vertex 885.785472769478 1736.60358348885 2.0
vertex 885.785472769478 1734.60358348885 2.0
endloop
endfacet
facet normal -0.991444861373811 1.5244181958744e-018 0.130526192220048
outer loop
vertex 885.785472769478 1736.60358348885 2.0
vertex 886.126214506587 1734.60358348885 4.58819045102538
vertex 886.126214506587 1736.60358348885 4.58819045102538
endloop
endfacet
facet normal -0.258819045102525 0.0 -0.965925826289067
outer loop
vertex 896.561929904785 1726.60358348885 9.89777747886714
vertex 895.785472769478 1724.60358348885 9.99999999999994
vertex 895.785472769478 1726.60358348885 9.99999999999994
endloop
endfacet
facet normal 0.0 0.0 -1.0
outer loop
vertex 895.785472769478 1724.60358348885 9.99999999999994
vertex 896.561929904785 1726.60358348885 9.89777747886714
vertex 896.561929904785 1724.60358348885 9.89777747886714
endloop
endfacet
facet normal 0.0 0.0 -1.0
outer loop
vertex 895.785472769478 1726.60358348885 9.99999999999994
vertex 895.00901563417 1724.60358348885 9.89777747886714
vertex 895.00901563417 1726.60358348885 9.89777747886714
endloop
endfacet
facet normal 0.258819045102526 0.0 -0.965925826289067
outer loop
vertex 895.00901563417 1724.60358348885 9.89777747886714
vertex 895.785472769478 1726.60358348885 9.99999999999994
vertex 895.785472769478 1724.60358348885 9.99999999999994
endloop
endfacet
facet normal 0.258819045102526 0.0 -0.965925826289067
outer loop
vertex 895.00901563417 1726.60358348885 9.89777747886714
vertex 894.285472769478 1724.60358348885 9.59807621135325
vertex 894.285472769478 1726.60358348885 9.59807621135325
endloop
endfacet
facet normal 0.50000000000003 0.0 -0.866025403784422
outer loop
vertex 894.285472769478 1724.60358348885 9.59807621135325
vertex 895.00901563417 1726.60358348885 9.89777747886714
vertex 895.00901563417 1724.60358348885 9.89777747886714
endloop
endfacet
facet normal 0.50000000000003 0.0 -0.866025403784422
outer loop
vertex 894.285472769478 1726.60358348885 9.59807621135325
vertex 893.664152425918 1724.60358348885 9.12132034355957
vertex 893.664152425918 1726.60358348885 9.12132034355957
endloop
endfacet
facet normal 0.707106781186544 0.0 -0.707106781186551
outer loop
vertex 893.664152425918 1724.60358348885 9.12132034355957
vertex 894.285472769478 1726.60358348885 9.59807621135325
vertex 894.285472769478 1724.60358348885 9.59807621135325
endloop
endfacet
facet normal 0.866025403784432 0.0 -0.500000000000011
outer loop
vertex 893.187396558124 1726.60358348885 8.49999999999992
vertex 893.664152425918 1724.60358348885 9.12132034355957
vertex 893.187396558124 1724.60358348885 8.49999999999992
endloop
endfacet
facet normal 0.707106781186544 0.0 -0.707106781186551
outer loop
vertex 893.664152425918 1724.60358348885 9.12132034355957
vertex 893.187396558124 1726.60358348885 8.49999999999992
vertex 893.664152425918 1726.60358348885 9.12132034355957
endloop
endfacet
facet normal 0.965925826289067 0.0 -0.258819045102525
outer loop
vertex 892.887695290611 1726.60358348885 7.77645713530747
vertex 893.187396558124 1724.60358348885 8.49999999999992
vertex 892.887695290611 1724.60358348885 7.77645713530747
endloop
endfacet
facet normal 0.866025403784432 0.0 -0.500000000000011
outer loop
vertex 893.187396558124 1724.60358348885 8.49999999999992
vertex 892.887695290611 1726.60358348885 7.77645713530747
vertex 893.187396558124 1726.60358348885 8.49999999999992
endloop
endfacet
facet normal 1.0 0.0 -1.69311088017292e-016
outer loop
vertex 892.785472769478 1726.60358348885 6.9999999999999
vertex 892.887695290611 1724.60358348885 7.77645713530747
vertex 892.785472769478 1724.60358348885 6.9999999999999
endloop
endfacet
facet normal 0.965925826289067 0.0 -0.258819045102525
outer loop
vertex 892.887695290611 1724.60358348885 7.77645713530747
vertex 892.785472769478 1726.60358348885 6.9999999999999
vertex 892.887695290611 1726.60358348885 7.77645713530747
endloop
endfacet
facet normal 0.965925826289067 0.0 0.258819045102525
outer loop
vertex 892.887695290611 1726.60358348885 6.22354286469233
vertex 892.785472769478 1724.60358348885 6.9999999999999
vertex 892.887695290611 1724.60358348885 6.22354286469233
endloop
endfacet
facet normal 1.0 0.0 -1.69311088017292e-016
outer loop
vertex 892.785472769478 1724.60358348885 6.9999999999999
vertex 892.887695290611 1726.60358348885 6.22354286469233
vertex 892.785472769478 1726.60358348885 6.9999999999999
endloop
endfacet
facet normal 0.866025403784432 0.0 0.500000000000011
outer loop
vertex 893.187396558124 1726.60358348885 5.49999999999988
vertex 892.887695290611 1724.60358348885 6.22354286469233
vertex 893.187396558124 1724.60358348885 5.49999999999988
endloop
endfacet
facet normal 0.965925826289067 0.0 0.258819045102525
outer loop
vertex 892.887695290611 1724.60358348885 6.22354286469233
vertex 893.187396558124 1726.60358348885 5.49999999999988
vertex 892.887695290611 1726.60358348885 6.22354286469233
endloop
endfacet
facet normal 0.707106781186543 0.0 0.707106781186552
outer loop
vertex 893.664152425918 1726.60358348885 4.87867965644023
vertex 893.187396558124 1724.60358348885 5.49999999999988
vertex 893.664152425918 1724.60358348885 4.87867965644023
endloop
endfacet
facet normal 0.866025403784432 0.0 0.500000000000011
outer loop
vertex 893.187396558124 1724.60358348885 5.49999999999988
vertex 893.664152425918 1726.60358348885 4.87867965644023
vertex 893.187396558124 1726.60358348885 5.49999999999988
endloop
endfacet
facet normal 0.500000000000029 0.0 0.866025403784422
outer loop
vertex 894.285472769478 1724.60358348885 4.40192378864655
vertex 893.664152425918 1726.60358348885 4.87867965644023
vertex 893.664152425918 1724.60358348885 4.87867965644023
endloop
endfacet
facet normal 0.707106781186543 0.0 0.707106781186552
outer loop
vertex 893.664152425918 1726.60358348885 4.87867965644023
vertex 894.285472769478 1724.60358348885 4.40192378864655
vertex 894.285472769478 1726.60358348885 4.40192378864655
endloop
endfacet
facet normal 0.258819045102526 0.0 0.965925826289067
outer loop
vertex 895.00901563417 1724.60358348885 4.10222252113266
vertex 894.285472769478 1726.60358348885 4.40192378864655
vertex 894.285472769478 1724.60358348885 4.40192378864655
endloop
endfacet
facet normal 0.500000000000029 0.0 0.866025403784422
outer loop
vertex 894.285472769478 1726.60358348885 4.40192378864655
vertex 895.00901563417 1724.60358348885 4.10222252113266
vertex 895.00901563417 1726.60358348885 4.10222252113266
endloop
endfacet
facet normal 0.0 0.0 1.0
outer loop
vertex 895.785472769478 1724.60358348885 3.99999999999986
vertex 895.00901563417 1726.60358348885 4.10222252113266
vertex 895.00901563417 1724.60358348885 4.10222252113266
endloop
endfacet
facet normal 0.258819045102526 0.0 0.965925826289067
outer loop
vertex 895.00901563417 1726.60358348885 4.10222252113266
vertex 895.785472769478 1724.60358348885 3.99999999999986
vertex 895.785472769478 1726.60358348885 3.99999999999986
endloop
endfacet
facet normal -0.258819045102526 0.0 0.965925826289067
outer loop
vertex 896.561929904785 1724.60358348885 4.10222252113266
vertex 895.785472769478 1726.60358348885 3.99999999999986
vertex 895.785472769478 1724.60358348885 3.99999999999986
endloop
endfacet
facet normal 0.0 0.0 1.0
outer loop
vertex 895.785472769478 1726.60358348885 3.99999999999986
vertex 896.561929904785 1724.60358348885 4.10222252113266
vertex 896.561929904785 1726.60358348885 4.10222252113266
endloop
endfacet
facet normal -0.500000000000029 0.0 0.866025403784422
outer loop
vertex 897.285472769478 1724.60358348885 4.40192378864655
vertex 896.561929904785 1726.60358348885 4.10222252113266
vertex 896.561929904785 1724.60358348885 4.10222252113266
endloop
endfacet
facet normal -0.258819045102526 0.0 0.965925826289067
outer loop
vertex 896.561929904785 1726.60358348885 4.10222252113266
vertex 897.285472769478 1724.60358348885 4.40192378864655
vertex 897.285472769478 1726.60358348885 4.40192378864655
endloop
endfacet
facet normal -0.707106781186543 0.0 0.707106781186552
outer loop
vertex 897.906793113037 1724.60358348885 4.87867965644023
vertex 897.285472769478 1726.60358348885 4.40192378864655
vertex 897.285472769478 1724.60358348885 4.40192378864655
endloop
endfacet
facet normal -0.500000000000029 0.0 0.866025403784422
outer loop
vertex 897.285472769478 1726.60358348885 4.40192378864655
vertex 897.906793113037 1724.60358348885 4.87867965644023
vertex 897.906793113037 1726.60358348885 4.87867965644023
endloop
endfacet
facet normal -0.866025403784432 0.0 0.500000000000011
outer loop
vertex 898.383548980831 1726.60358348885 5.49999999999988
vertex 897.906793113037 1724.60358348885 4.87867965644023
vertex 898.383548980831 1724.60358348885 5.49999999999988
endloop
endfacet
facet normal -0.707106781186543 0.0 0.707106781186552
outer loop
vertex 897.906793113037 1724.60358348885 4.87867965644023
vertex 898.383548980831 1726.60358348885 5.49999999999988
vertex 897.906793113037 1726.60358348885 4.87867965644023
endloop
endfacet
facet normal -0.965925826289067 0.0 0.258819045102525
outer loop
vertex 898.683250248345 1726.60358348885 6.22354286469233
vertex 898.383548980831 1724.60358348885 5.49999999999988
vertex 898.683250248345 1724.60358348885 6.22354286469233
endloop
endfacet
facet normal -0.866025403784432 0.0 0.500000000000011
outer loop
vertex 898.383548980831 1724.60358348885 5.49999999999988
vertex 898.683250248345 1726.60358348885 6.22354286469233
vertex 898.383548980831 1726.60358348885 5.49999999999988
endloop
endfacet
facet normal -1.0 0.0 2.58422186973762e-016
outer loop
vertex 898.785472769478 1726.60358348885 6.9999999999999
vertex 898.683250248345 1724.60358348885 6.22354286469233
vertex 898.785472769478 1724.60358348885 6.9999999999999
endloop
endfacet
facet normal -0.965925826289067 0.0 0.258819045102525
outer loop
vertex 898.683250248345 1724.60358348885 6.22354286469233
vertex 898.785472769478 1726.60358348885 6.9999999999999
vertex 898.683250248345 1726.60358348885 6.22354286469233
endloop
endfacet
facet normal -0.965925826289067 0.0 -0.258819045102525
outer loop
vertex 898.683250248345 1726.60358348885 7.77645713530748
vertex 898.785472769478 1724.60358348885 6.9999999999999
vertex 898.683250248345 1724.60358348885 7.77645713530748
endloop
endfacet
facet normal -1.0 0.0 2.58422186973762e-016
outer loop
vertex 898.785472769478 1724.60358348885 6.9999999999999
vertex 898.683250248345 1726.60358348885 7.77645713530748
vertex 898.785472769478 1726.60358348885 6.9999999999999
endloop
endfacet
facet normal -0.866025403784432 0.0 -0.500000000000011
outer loop
vertex 898.383548980831 1726.60358348885 8.49999999999992
vertex 898.683250248345 1724.60358348885 7.77645713530748
vertex 898.383548980831 1724.60358348885 8.49999999999992
endloop
endfacet
facet normal -0.965925826289067 0.0 -0.258819045102525
outer loop
vertex 898.683250248345 1724.60358348885 7.77645713530748
vertex 898.383548980831 1726.60358348885 8.49999999999992
vertex 898.683250248345 1726.60358348885 7.77645713530748
endloop
endfacet
facet normal -0.707106781186543 0.0 -0.707106781186552
outer loop
vertex 897.906793113037 1726.60358348885 9.12132034355957
vertex 898.383548980831 1724.60358348885 8.49999999999992
vertex 897.906793113037 1724.60358348885 9.12132034355957
endloop
endfacet
facet normal -0.866025403784432 0.0 -0.500000000000011
outer loop
vertex 898.383548980831 1724.60358348885 8.49999999999992
vertex 897.906793113037 1726.60358348885 9.12132034355957
vertex 898.383548980831 1726.60358348885 8.49999999999992
endloop
endfacet
facet normal -0.707106781186543 0.0 -0.707106781186552
outer loop
vertex 897.906793113037 1726.60358348885 9.12132034355957
vertex 897.285472769478 1724.60358348885 9.59807621135325
vertex 897.285472769478 1726.60358348885 9.59807621135325
endloop
endfacet
facet normal -0.500000000000028 0.0 -0.866025403784422
outer loop
vertex 897.285472769478 1724.60358348885 9.59807621135325
vertex 897.906793113037 1726.60358348885 9.12132034355957
vertex 897.906793113037 1724.60358348885 9.12132034355957
endloop
endfacet
facet normal -0.500000000000028 0.0 -0.866025403784422
outer loop
vertex 897.285472769478 1726.60358348885 9.59807621135325
vertex 896.561929904785 1724.60358348885 9.89777747886714
vertex 896.561929904785 1726.60358348885 9.89777747886714
endloop
endfacet
facet normal -0.258819045102525 0.0 -0.965925826289067
outer loop
vertex 896.561929904785 1724.60358348885 9.89777747886714
vertex 897.285472769478 1726.60358348885 9.59807621135325
vertex 897.285472769478 1724.60358348885 9.59807621135325
endloop
endfacet
facet normal -8.9111098956469e-016 0.0 -1.0
outer loop
vertex 895.785472769478 1736.60358348885 10.0000000000001
vertex 895.00901563417 1734.60358348885 9.89777747886732
vertex 895.00901563417 1736.60358348885 9.89777747886732
endloop
endfacet
facet normal 0.258819045102525 0.0 -0.965925826289067
outer loop
vertex 895.00901563417 1734.60358348885 9.89777747886732
vertex 895.785472769478 1736.60358348885 10.0000000000001
vertex 895.785472769478 1734.60358348885 10.0000000000001
endloop
endfacet
facet normal -0.258819045102526 0.0 -0.965925826289067
outer loop
vertex 896.561929904785 1736.60358348885 9.89777747886732
vertex 895.785472769478 1734.60358348885 10.0000000000001
vertex 895.785472769478 1736.60358348885 10.0000000000001
endloop
endfacet
facet normal -8.9111098956469e-016 0.0 -1.0
outer loop
vertex 895.785472769478 1734.60358348885 10.0000000000001
vertex 896.561929904785 1736.60358348885 9.89777747886732
vertex 896.561929904785 1734.60358348885 9.89777747886732
endloop
endfacet
facet normal -0.50000000000003 0.0 -0.866025403784422
outer loop
vertex 897.285472769478 1736.60358348885 9.59807621135343
vertex 896.561929904785 1734.60358348885 9.89777747886732
vertex 896.561929904785 1736.60358348885 9.89777747886732
endloop
endfacet
facet normal -0.258819045102526 0.0 -0.965925826289067
outer loop
vertex 896.561929904785 1734.60358348885 9.89777747886732
vertex 897.285472769478 1736.60358348885 9.59807621135343
vertex 897.285472769478 1734.60358348885 9.59807621135343
endloop
endfacet
facet normal -0.707106781186544 0.0 -0.707106781186551
outer loop
vertex 897.906793113037 1736.60358348885 9.12132034355975
vertex 897.285472769478 1734.60358348885 9.59807621135343
vertex 897.285472769478 1736.60358348885 9.59807621135343
endloop
endfacet
facet normal -0.50000000000003 0.0 -0.866025403784422
outer loop
vertex 897.285472769478 1734.60358348885 9.59807621135343
vertex 897.906793113037 1736.60358348885 9.12132034355975
vertex 897.906793113037 1734.60358348885 9.12132034355975
endloop
endfacet
facet normal -0.707106781186544 0.0 -0.707106781186551
outer loop
vertex 897.906793113037 1736.60358348885 9.12132034355975
vertex 898.383548980831 1734.60358348885 8.5000000000001
vertex 897.906793113037 1734.60358348885 9.12132034355975
endloop
endfacet
facet normal -0.866025403784432 0.0 -0.500000000000011
outer loop
vertex 898.383548980831 1734.60358348885 8.5000000000001
vertex 897.906793113037 1736.60358348885 9.12132034355975
vertex 898.383548980831 1736.60358348885 8.5000000000001
endloop
endfacet
facet normal -0.866025403784432 0.0 -0.500000000000011
outer loop
vertex 898.383548980831 1736.60358348885 8.5000000000001
vertex 898.683250248345 1734.60358348885 7.77645713530765
vertex 898.383548980831 1734.60358348885 8.5000000000001
endloop
endfacet
facet normal -0.965925826289067 0.0 -0.258819045102525
outer loop
vertex 898.683250248345 1734.60358348885 7.77645713530765
vertex 898.383548980831 1736.60358348885 8.5000000000001
vertex 898.683250248345 1736.60358348885 7.77645713530765
endloop
endfacet
facet normal -0.965925826289067 0.0 -0.258819045102525
outer loop
vertex 898.683250248345 1736.60358348885 7.77645713530765
vertex 898.785472769478 1734.60358348885 7.00000000000008
vertex 898.683250248345 1734.60358348885 7.77645713530765
endloop
endfacet
facet normal -1.0 0.0 -1.69311088017292e-016
outer loop
vertex 898.785472769478 1734.60358348885 7.00000000000008
vertex 898.683250248345 1736.60358348885 7.77645713530765
vertex 898.785472769478 1736.60358348885 7.00000000000008
endloop
endfacet
facet normal -1.0 0.0 -1.69311088017292e-016
outer loop
vertex 898.785472769478 1736.60358348885 7.00000000000008
vertex 898.683250248345 1734.60358348885 6.22354286469251
vertex 898.785472769478 1734.60358348885 7.00000000000008
endloop
endfacet
facet normal -0.965925826289067 0.0 0.258819045102525
outer loop
vertex 898.683250248345 1734.60358348885 6.22354286469251
vertex 898.785472769478 1736.60358348885 7.00000000000008
vertex 898.683250248345 1736.60358348885 6.22354286469251
endloop
endfacet
facet normal -0.965925826289067 0.0 0.258819045102525
outer loop
vertex 898.683250248345 1736.60358348885 6.22354286469251
vertex 898.383548980831 1734.60358348885 5.50000000000006
vertex 898.683250248345 1734.60358348885 6.22354286469251
endloop
endfacet
facet normal -0.866025403784432 0.0 0.500000000000011
outer loop
vertex 898.383548980831 1734.60358348885 5.50000000000006
vertex 898.683250248345 1736.60358348885 6.22354286469251
vertex 898.383548980831 1736.60358348885 5.50000000000006
endloop
endfacet
facet normal -0.866025403784432 0.0 0.500000000000011
outer loop
vertex 898.383548980831 1736.60358348885 5.50000000000006
vertex 897.906793113037 1734.60358348885 4.87867965644041
vertex 898.383548980831 1734.60358348885 5.50000000000006
endloop
endfacet
facet normal -0.707106781186543 0.0 0.707106781186552
outer loop
vertex 897.906793113037 1734.60358348885 4.87867965644041
vertex 898.383548980831 1736.60358348885 5.50000000000006
vertex 897.906793113037 1736.60358348885 4.87867965644041
endloop
endfacet
facet normal -0.707106781186543 0.0 0.707106781186552
outer loop
vertex 897.906793113037 1734.60358348885 4.87867965644041
vertex 897.285472769478 1736.60358348885 4.40192378864673
vertex 897.285472769478 1734.60358348885 4.40192378864673
endloop
endfacet
facet normal -0.500000000000029 0.0 0.866025403784422
outer loop
vertex 897.285472769478 1736.60358348885 4.40192378864673
vertex 897.906793113037 1734.60358348885 4.87867965644041
vertex 897.906793113037 1736.60358348885 4.87867965644041
endloop
endfacet
facet normal -0.500000000000029 0.0 0.866025403784422
outer loop
vertex 897.285472769478 1734.60358348885 4.40192378864673
vertex 896.561929904785 1736.60358348885 4.10222252113284
vertex 896.561929904785 1734.60358348885 4.10222252113284
endloop
endfacet
facet normal -0.258819045102526 0.0 0.965925826289067
outer loop
vertex 896.561929904785 1736.60358348885 4.10222252113284
vertex 897.285472769478 1734.60358348885 4.40192378864673
vertex 897.285472769478 1736.60358348885 4.40192378864673
endloop
endfacet
facet normal -0.258819045102526 0.0 0.965925826289067
outer loop
vertex 896.561929904785 1734.60358348885 4.10222252113284
vertex 895.785472769478 1736.60358348885 4.00000000000004
vertex 895.785472769478 1734.60358348885 4.00000000000004
endloop
endfacet
facet normal 0.0 0.0 1.0
outer loop
vertex 895.785472769478 1736.60358348885 4.00000000000004
vertex 896.561929904785 1734.60358348885 4.10222252113284
vertex 896.561929904785 1736.60358348885 4.10222252113284
endloop
endfacet
facet normal 0.0 0.0 1.0
outer loop
vertex 895.785472769478 1734.60358348885 4.00000000000004
vertex 895.00901563417 1736.60358348885 4.10222252113284
vertex 895.00901563417 1734.60358348885 4.10222252113284
endloop
endfacet
facet normal 0.258819045102526 0.0 0.965925826289067
outer loop
vertex 895.00901563417 1736.60358348885 4.10222252113284
vertex 895.785472769478 1734.60358348885 4.00000000000004
vertex 895.785472769478 1736.60358348885 4.00000000000004
endloop
endfacet
facet normal 0.258819045102526 0.0 0.965925826289067
outer loop
vertex 895.00901563417 1734.60358348885 4.10222252113284
vertex 894.285472769478 1736.60358348885 4.40192378864673
vertex 894.285472769478 1734.60358348885 4.40192378864673
endloop
endfacet
facet normal 0.500000000000029 0.0 0.866025403784422
outer loop
vertex 894.285472769478 1736.60358348885 4.40192378864673
vertex 895.00901563417 1734.60358348885 4.10222252113284
vertex 895.00901563417 1736.60358348885 4.10222252113284
endloop
endfacet
facet normal 0.500000000000029 0.0 0.866025403784422
outer loop
vertex 894.285472769478 1734.60358348885 4.40192378864673
vertex 893.664152425918 1736.60358348885 4.87867965644041
vertex 893.664152425918 1734.60358348885 4.87867965644041
endloop
endfacet
facet normal 0.707106781186543 0.0 0.707106781186552
outer loop
vertex 893.664152425918 1736.60358348885 4.87867965644041
vertex 894.285472769478 1734.60358348885 4.40192378864673
vertex 894.285472769478 1736.60358348885 4.40192378864673
endloop
endfacet
facet normal 0.707106781186543 0.0 0.707106781186552
outer loop
vertex 893.664152425918 1736.60358348885 4.87867965644041
vertex 893.187396558124 1734.60358348885 5.50000000000006
vertex 893.664152425918 1734.60358348885 4.87867965644041
endloop
endfacet
facet normal 0.866025403784432 0.0 0.500000000000011
outer loop
vertex 893.187396558124 1734.60358348885 5.50000000000006
vertex 893.664152425918 1736.60358348885 4.87867965644041
vertex 893.187396558124 1736.60358348885 5.50000000000006
endloop
endfacet
facet normal 0.866025403784432 0.0 0.500000000000011
outer loop
vertex 893.187396558124 1736.60358348885 5.50000000000006
vertex 892.887695290611 1734.60358348885 6.22354286469251
vertex 893.187396558124 1734.60358348885 5.50000000000006
endloop
endfacet
facet normal 0.965925826289067 0.0 0.258819045102525
outer loop
vertex 892.887695290611 1734.60358348885 6.22354286469251
vertex 893.187396558124 1736.60358348885 5.50000000000006
vertex 892.887695290611 1736.60358348885 6.22354286469251
endloop
endfacet
facet normal 0.965925826289067 0.0 0.258819045102525
outer loop
vertex 892.887695290611 1736.60358348885 6.22354286469251
vertex 892.785472769478 1734.60358348885 7.00000000000008
vertex 892.887695290611 1734.60358348885 6.22354286469251
endloop
endfacet
facet normal 1.0 0.0 2.58422186973762e-016
outer loop
vertex 892.785472769478 1734.60358348885 7.00000000000008
vertex 892.887695290611 1736.60358348885 6.22354286469251
vertex 892.785472769478 1736.60358348885 7.00000000000008
endloop
endfacet
facet normal 1.0 0.0 2.58422186973762e-016
outer loop
vertex 892.785472769478 1736.60358348885 7.00000000000008
vertex 892.887695290611 1734.60358348885 7.77645713530766
vertex 892.785472769478 1734.60358348885 7.00000000000008
endloop
endfacet
facet normal 0.965925826289067 0.0 -0.258819045102525
outer loop
vertex 892.887695290611 1734.60358348885 7.77645713530766
vertex 892.785472769478 1736.60358348885 7.00000000000008
vertex 892.887695290611 1736.60358348885 7.77645713530766
endloop
endfacet
facet normal 0.965925826289067 0.0 -0.258819045102525
outer loop
vertex 892.887695290611 1736.60358348885 7.77645713530766
vertex 893.187396558124 1734.60358348885 8.5000000000001
vertex 892.887695290611 1734.60358348885 7.77645713530766
endloop
endfacet
facet normal 0.866025403784432 0.0 -0.500000000000011
outer loop
vertex 893.187396558124 1734.60358348885 8.5000000000001
vertex 892.887695290611 1736.60358348885 7.77645713530766
vertex 893.187396558124 1736.60358348885 8.5000000000001
endloop
endfacet
facet normal 0.866025403784432 0.0 -0.500000000000011
outer loop
vertex 893.187396558124 1736.60358348885 8.5000000000001
vertex 893.664152425918 1734.60358348885 9.12132034355975
vertex 893.187396558124 1734.60358348885 8.5000000000001
endloop
endfacet
facet normal 0.707106781186544 0.0 -0.707106781186552
outer loop
vertex 893.664152425918 1734.60358348885 9.12132034355975
vertex 893.187396558124 1736.60358348885 8.5000000000001
vertex 893.664152425918 1736.60358348885 9.12132034355975
endloop
endfacet
facet normal 0.50000000000003 0.0 -0.866025403784422
outer loop
vertex 894.285472769478 1736.60358348885 9.59807621135343
vertex 893.664152425918 1734.60358348885 9.12132034355975
vertex 893.664152425918 1736.60358348885 9.12132034355975
endloop
endfacet
facet normal 0.707106781186544 0.0 -0.707106781186552
outer loop
vertex 893.664152425918 1734.60358348885 9.12132034355975
vertex 894.285472769478 1736.60358348885 9.59807621135343
vertex 894.285472769478 1734.60358348885 9.59807621135343
endloop
endfacet
facet normal 0.258819045102525 0.0 -0.965925826289067
outer loop
vertex 895.00901563417 1736.60358348885 9.89777747886732
vertex 894.285472769478 1734.60358348885 9.59807621135343
vertex 894.285472769478 1736.60358348885 9.59807621135343
endloop
endfacet
facet normal 0.50000000000003 0.0 -0.866025403784422
outer loop
vertex 894.285472769478 1734.60358348885 9.59807621135343
vertex 895.00901563417 1736.60358348885 9.89777747886732
vertex 895.00901563417 1734.60358348885 9.89777747886732
endloop
endfacet
endsolid untitled
