solid untitled
facet normal 0.0 0.0 -1.0
outer loop
vertex 668.422107190791 1842.02627807353 0.0
vertex 668.422107190791 1839.43808762251 0.0
vertex 668.251736322236 1840.73218284802 0.0
endloop
endfacet
facet normal 0.0 0.0 -1.0
outer loop
vertex 668.422107190791 1839.43808762251 0.0
vertex 668.422107190791 1842.02627807353 0.0
vertex 668.921609303314 1843.23218284802 0.0
endloop
endfacet
facet normal 0.0 0.0 -1.0
outer loop
vertex 668.422107190791 1839.43808762251 0.0
vertex 668.921609303314 1843.23218284802 0.0
vertex 668.921609303314 1838.23218284802 0.0
endloop
endfacet
facet normal 0.0 0.0 -1.0
outer loop
vertex 668.921609303314 1838.23218284802 0.0
vertex 668.921609303314 1843.23218284802 0.0
vertex 669.716202416303 1844.26771675395 0.0
endloop
endfacet
facet normal 0.0 0.0 -1.0
outer loop
vertex 668.921609303314 1838.23218284802 0.0
vertex 669.716202416303 1844.26771675395 0.0
vertex 669.716202416303 1837.19664894209 0.0
endloop
endfacet
facet normal 0.0 0.0 -1.0
outer loop
vertex 669.716202416303 1837.19664894209 0.0
vertex 669.716202416303 1844.26771675395 0.0
vertex 670.751736322236 1845.06230986694 0.0
endloop
endfacet
facet normal 0.0 0.0 -1.0
outer loop
vertex 669.716202416303 1837.19664894209 0.0
vertex 670.751736322236 1845.06230986694 0.0
vertex 670.251736322236 1840.73218284802 0.0
endloop
endfacet
facet normal 0.0 0.0 -1.0
outer loop
vertex 670.251736322236 1840.73218284802 0.0
vertex 670.751736322236 1845.06230986694 0.0
vertex 670.353958843369 1841.50863998333 0.0
endloop
endfacet
facet normal 0.0 0.0 -1.0
outer loop
vertex 670.353958843369 1841.50863998333 0.0
vertex 670.751736322236 1845.06230986694 0.0
vertex 670.653660110883 1842.23218284802 0.0
endloop
endfacet
facet normal 0.0 0.0 -1.0
outer loop
vertex 670.653660110883 1842.23218284802 0.0
vertex 670.751736322236 1845.06230986694 0.0
vertex 671.130415978676 1842.85350319158 0.0
endloop
endfacet
facet normal 0.0 0.0 -1.0
outer loop
vertex 671.130415978676 1842.85350319158 0.0
vertex 670.751736322236 1845.06230986694 0.0
vertex 671.957641096723 1845.56181197946 0.0
endloop
endfacet
facet normal 0.0 0.0 -1.0
outer loop
vertex 671.130415978676 1842.85350319158 0.0
vertex 671.957641096723 1845.56181197946 0.0
vertex 671.751736322236 1843.33025905937 0.0
endloop
endfacet
facet normal 0.0 0.0 -1.0
outer loop
vertex 671.751736322236 1843.33025905937 0.0
vertex 671.957641096723 1845.56181197946 0.0
vertex 672.475279186929 1843.62996032689 0.0
endloop
endfacet
facet normal 0.0 0.0 -1.0
outer loop
vertex 672.475279186929 1843.62996032689 0.0
vertex 671.957641096723 1845.56181197946 0.0
vertex 673.251736322236 1845.73218284802 0.0
endloop
endfacet
facet normal 0.0 0.0 -1.0
outer loop
vertex 672.475279186929 1843.62996032689 0.0
vertex 673.251736322236 1845.73218284802 0.0
vertex 673.251736322236 1843.73218284802 0.0
endloop
endfacet
facet normal 0.0 0.0 -1.0
outer loop
vertex 673.251736322236 1843.73218284802 0.0
vertex 673.251736322236 1845.73218284802 0.0
vertex 674.545831547749 1845.56181197946 0.0
endloop
endfacet
facet normal 0.0 0.0 -1.0
outer loop
vertex 673.251736322236 1843.73218284802 0.0
vertex 674.545831547749 1845.56181197946 0.0
vertex 674.028193457544 1843.62996032689 0.0
endloop
endfacet
facet normal 0.0 0.0 -1.0
outer loop
vertex 674.028193457544 1843.62996032689 0.0
vertex 674.545831547749 1845.56181197946 0.0
vertex 674.751736322236 1843.33025905937 0.0
endloop
endfacet
facet normal 0.0 0.0 -1.0
outer loop
vertex 674.751736322236 1843.33025905937 0.0
vertex 674.545831547749 1845.56181197946 0.0
vertex 675.751736322236 1845.06230986694 0.0
endloop
endfacet
facet normal 0.0 0.0 -1.0
outer loop
vertex 674.751736322236 1843.33025905937 0.0
vertex 675.751736322236 1845.06230986694 0.0
vertex 675.373056665796 1842.85350319158 0.0
endloop
endfacet
facet normal 0.0 0.0 -1.0
outer loop
vertex 675.373056665796 1842.85350319158 0.0
vertex 675.751736322236 1845.06230986694 0.0
vertex 675.849812533589 1842.23218284802 0.0
endloop
endfacet
facet normal 0.0 0.0 -1.0
outer loop
vertex 675.849812533589 1842.23218284802 0.0
vertex 675.751736322236 1845.06230986694 0.0
vertex 676.787270228169 1844.26771675395 0.0
endloop
endfacet
facet normal 0.0 0.0 -1.0
outer loop
vertex 675.849812533589 1842.23218284802 0.0
vertex 676.787270228169 1844.26771675395 0.0
vertex 676.149513801103 1841.50863998333 0.0
endloop
endfacet
facet normal 0.0 0.0 -1.0
outer loop
vertex 676.149513801103 1841.50863998333 0.0
vertex 676.787270228169 1844.26771675395 0.0
vertex 676.251736322236 1840.73218284802 0.0
endloop
endfacet
facet normal 0.0 0.0 -1.0
outer loop
vertex 670.251736322236 1840.73218284802 0.0
vertex 670.751736322236 1836.4020558291 0.0
vertex 669.716202416303 1837.19664894209 0.0
endloop
endfacet
facet normal 0.0 0.0 -1.0
outer loop
vertex 670.751736322236 1836.4020558291 0.0
vertex 670.251736322236 1840.73218284802 0.0
vertex 670.353958843369 1839.95572571271 0.0
endloop
endfacet
facet normal 0.0 0.0 -1.0
outer loop
vertex 670.751736322236 1836.4020558291 0.0
vertex 670.353958843369 1839.95572571271 0.0
vertex 670.653660110883 1839.23218284802 0.0
endloop
endfacet
facet normal 0.0 0.0 -1.0
outer loop
vertex 670.751736322236 1836.4020558291 0.0
vertex 670.653660110883 1839.23218284802 0.0
vertex 671.130415978676 1838.61086250446 0.0
endloop
endfacet
facet normal 0.0 0.0 -1.0
outer loop
vertex 670.751736322236 1836.4020558291 0.0
vertex 671.130415978676 1838.61086250446 0.0
vertex 671.957641096723 1835.90255371657 0.0
endloop
endfacet
facet normal 0.0 0.0 -1.0
outer loop
vertex 671.957641096723 1835.90255371657 0.0
vertex 671.130415978676 1838.61086250446 0.0
vertex 671.751736322236 1838.13410663667 0.0
endloop
endfacet
facet normal 0.0 0.0 -1.0
outer loop
vertex 671.957641096723 1835.90255371657 0.0
vertex 671.751736322236 1838.13410663667 0.0
vertex 672.475279186929 1837.83440536915 0.0
endloop
endfacet
facet normal 0.0 0.0 -1.0
outer loop
vertex 671.957641096723 1835.90255371657 0.0
vertex 672.475279186929 1837.83440536915 0.0
vertex 673.251736322236 1835.73218284802 0.0
endloop
endfacet
facet normal 0.0 0.0 -1.0
outer loop
vertex 673.251736322236 1835.73218284802 0.0
vertex 672.475279186929 1837.83440536915 0.0
vertex 673.251736322236 1837.73218284802 0.0
endloop
endfacet
facet normal 0.0 0.0 -1.0
outer loop
vertex 673.251736322236 1835.73218284802 0.0
vertex 673.251736322236 1837.73218284802 0.0
vertex 674.028193457544 1837.83440536915 0.0
endloop
endfacet
facet normal 0.0 0.0 -1.0
outer loop
vertex 673.251736322236 1835.73218284802 0.0
vertex 674.028193457544 1837.83440536915 0.0
vertex 674.545831547749 1835.90255371657 0.0
endloop
endfacet
facet normal 0.0 0.0 -1.0
outer loop
vertex 674.545831547749 1835.90255371657 0.0
vertex 674.028193457544 1837.83440536915 0.0
vertex 674.751736322236 1838.13410663667 0.0
endloop
endfacet
facet normal 0.0 0.0 -1.0
outer loop
vertex 674.545831547749 1835.90255371657 0.0
vertex 674.751736322236 1838.13410663667 0.0
vertex 675.751736322236 1836.4020558291 0.0
endloop
endfacet
facet normal 0.0 0.0 -1.0
outer loop
vertex 675.751736322236 1836.4020558291 0.0
vertex 674.751736322236 1838.13410663667 0.0
vertex 675.373056665796 1838.61086250446 0.0
endloop
endfacet
facet normal 0.0 0.0 -1.0
outer loop
vertex 675.751736322236 1836.4020558291 0.0
vertex 675.373056665796 1838.61086250446 0.0
vertex 675.849812533589 1839.23218284802 0.0
endloop
endfacet
facet normal 0.0 0.0 -1.0
outer loop
vertex 675.751736322236 1836.4020558291 0.0
vertex 675.849812533589 1839.23218284802 0.0
vertex 676.787270228169 1837.19664894209 0.0
endloop
endfacet
facet normal 0.0 0.0 -1.0
outer loop
vertex 676.787270228169 1837.19664894209 0.0
vertex 675.849812533589 1839.23218284802 0.0
vertex 676.149513801103 1839.95572571271 0.0
endloop
endfacet
facet normal 0.0 0.0 -1.0
outer loop
vertex 676.787270228169 1837.19664894209 0.0
vertex 676.149513801103 1839.95572571271 0.0
vertex 676.251736322236 1840.73218284802 0.0
endloop
endfacet
facet normal 0.0 0.0 -1.0
outer loop
vertex 676.787270228169 1837.19664894209 0.0
vertex 676.251736322236 1840.73218284802 0.0
vertex 676.787270228169 1844.26771675395 0.0
endloop
endfacet
facet normal 0.0 0.0 -1.0
outer loop
vertex 676.787270228169 1837.19664894209 0.0
vertex 676.787270228169 1844.26771675395 0.0
vertex 677.581863341158 1843.23218284802 0.0
endloop
endfacet
facet normal 0.0 0.0 -1.0
outer loop
vertex 676.787270228169 1837.19664894209 0.0
vertex 677.581863341158 1843.23218284802 0.0
vertex 677.581863341158 1838.23218284802 0.0
endloop
endfacet
facet normal 0.0 0.0 -1.0
outer loop
vertex 677.581863341158 1838.23218284802 0.0
vertex 677.581863341158 1843.23218284802 0.0
vertex 678.081365453681 1842.02627807353 0.0
endloop
endfacet
facet normal 0.0 0.0 -1.0
outer loop
vertex 677.581863341158 1838.23218284802 0.0
vertex 678.081365453681 1842.02627807353 0.0
vertex 678.081365453681 1839.43808762251 0.0
endloop
endfacet
facet normal 0.0 0.0 -1.0
outer loop
vertex 678.081365453681 1839.43808762251 0.0
vertex 678.081365453681 1842.02627807353 0.0
vertex 678.251736322236 1840.73218284802 0.0
endloop
endfacet
facet normal 0.0 0.0 1.0
outer loop
vertex 668.422107190791 1839.43808762251 5.0
vertex 668.422107190791 1842.02627807353 5.0
vertex 668.251736322236 1840.73218284802 5.0
endloop
endfacet
facet normal 0.0 0.0 1.0
outer loop
vertex 668.422107190791 1842.02627807353 5.0
vertex 668.422107190791 1839.43808762251 5.0
vertex 668.921609303314 1838.23218284802 5.0
endloop
endfacet
facet normal 0.0 0.0 1.0
outer loop
vertex 668.422107190791 1842.02627807353 5.0
vertex 668.921609303314 1838.23218284802 5.0
vertex 668.921609303314 1843.23218284802 5.0
endloop
endfacet
facet normal 0.0 0.0 1.0
outer loop
vertex 668.921609303314 1843.23218284802 5.0
vertex 668.921609303314 1838.23218284802 5.0
vertex 669.716202416303 1837.19664894209 5.0
endloop
endfacet
facet normal 0.0 0.0 1.0
outer loop
vertex 668.921609303314 1843.23218284802 5.0
vertex 669.716202416303 1837.19664894209 5.0
vertex 669.716202416303 1844.26771675395 5.0
endloop
endfacet
facet normal 0.0 0.0 1.0
outer loop
vertex 669.716202416303 1844.26771675395 5.0
vertex 669.716202416303 1837.19664894209 5.0
vertex 670.751736322236 1836.4020558291 5.0
endloop
endfacet
facet normal 0.0 0.0 1.0
outer loop
vertex 669.716202416303 1844.26771675395 5.0
vertex 670.751736322236 1836.4020558291 5.0
vertex 670.251736322236 1840.73218284802 5.0
endloop
endfacet
facet normal 0.0 0.0 1.0
outer loop
vertex 670.251736322236 1840.73218284802 5.0
vertex 670.751736322236 1836.4020558291 5.0
vertex 670.353958843369 1839.95572571271 5.0
endloop
endfacet
facet normal 0.0 0.0 1.0
outer loop
vertex 670.353958843369 1839.95572571271 5.0
vertex 670.751736322236 1836.4020558291 5.0
vertex 670.653660110883 1839.23218284802 5.0
endloop
endfacet
facet normal 0.0 0.0 1.0
outer loop
vertex 670.653660110883 1839.23218284802 5.0
vertex 670.751736322236 1836.4020558291 5.0
vertex 671.130415978676 1838.61086250446 5.0
endloop
endfacet
facet normal 0.0 0.0 1.0
outer loop
vertex 671.130415978676 1838.61086250446 5.0
vertex 670.751736322236 1836.4020558291 5.0
vertex 671.957641096723 1835.90255371657 5.0
endloop
endfacet
facet normal 0.0 0.0 1.0
outer loop
vertex 671.130415978676 1838.61086250446 5.0
vertex 671.957641096723 1835.90255371657 5.0
vertex 671.751736322236 1838.13410663667 5.0
endloop
endfacet
facet normal 0.0 0.0 1.0
outer loop
vertex 671.751736322236 1838.13410663667 5.0
vertex 671.957641096723 1835.90255371657 5.0
vertex 672.475279186929 1837.83440536915 5.0
endloop
endfacet
facet normal 0.0 0.0 1.0
outer loop
vertex 672.475279186929 1837.83440536915 5.0
vertex 671.957641096723 1835.90255371657 5.0
vertex 673.251736322236 1835.73218284802 5.0
endloop
endfacet
facet normal 0.0 0.0 1.0
outer loop
vertex 672.475279186929 1837.83440536915 5.0
vertex 673.251736322236 1835.73218284802 5.0
vertex 673.251736322236 1837.73218284802 5.0
endloop
endfacet
facet normal 0.0 0.0 1.0
outer loop
vertex 673.251736322236 1837.73218284802 5.0
vertex 673.251736322236 1835.73218284802 5.0
vertex 674.545831547749 1835.90255371657 5.0
endloop
endfacet
facet normal 0.0 0.0 1.0
outer loop
vertex 673.251736322236 1837.73218284802 5.0
vertex 674.545831547749 1835.90255371657 5.0
vertex 674.028193457544 1837.83440536915 5.0
endloop
endfacet
facet normal 0.0 0.0 1.0
outer loop
vertex 674.028193457544 1837.83440536915 5.0
vertex 674.545831547749 1835.90255371657 5.0
vertex 674.751736322236 1838.13410663667 5.0
endloop
endfacet
facet normal 0.0 0.0 1.0
outer loop
vertex 674.751736322236 1838.13410663667 5.0
vertex 674.545831547749 1835.90255371657 5.0
vertex 675.751736322236 1836.4020558291 5.0
endloop
endfacet
facet normal 0.0 0.0 1.0
outer loop
vertex 674.751736322236 1838.13410663667 5.0
vertex 675.751736322236 1836.4020558291 5.0
vertex 675.373056665796 1838.61086250446 5.0
endloop
endfacet
facet normal 0.0 0.0 1.0
outer loop
vertex 675.373056665796 1838.61086250446 5.0
vertex 675.751736322236 1836.4020558291 5.0
vertex 675.849812533589 1839.23218284802 5.0
endloop
endfacet
facet normal 0.0 0.0 1.0
outer loop
vertex 675.849812533589 1839.23218284802 5.0
vertex 675.751736322236 1836.4020558291 5.0
vertex 676.787270228169 1837.19664894209 5.0
endloop
endfacet
facet normal 0.0 0.0 1.0
outer loop
vertex 675.849812533589 1839.23218284802 5.0
vertex 676.787270228169 1837.19664894209 5.0
vertex 676.149513801103 1839.95572571271 5.0
endloop
endfacet
facet normal 0.0 0.0 1.0
outer loop
vertex 676.149513801103 1839.95572571271 5.0
vertex 676.787270228169 1837.19664894209 5.0
vertex 676.251736322236 1840.73218284802 5.0
endloop
endfacet
facet normal 0.0 0.0 1.0
outer loop
vertex 670.251736322236 1840.73218284802 5.0
vertex 670.751736322236 1845.06230986694 5.0
vertex 669.716202416303 1844.26771675395 5.0
endloop
endfacet
facet normal 0.0 0.0 1.0
outer loop
vertex 670.751736322236 1845.06230986694 5.0
vertex 670.251736322236 1840.73218284802 5.0
vertex 670.353958843369 1841.50863998333 5.0
endloop
endfacet
facet normal 0.0 0.0 1.0
outer loop
vertex 670.751736322236 1845.06230986694 5.0
vertex 670.353958843369 1841.50863998333 5.0
vertex 670.653660110883 1842.23218284802 5.0
endloop
endfacet
facet normal 0.0 0.0 1.0
outer loop
vertex 670.751736322236 1845.06230986694 5.0
vertex 670.653660110883 1842.23218284802 5.0
vertex 671.130415978676 1842.85350319158 5.0
endloop
endfacet
facet normal 0.0 0.0 1.0
outer loop
vertex 670.751736322236 1845.06230986694 5.0
vertex 671.130415978676 1842.85350319158 5.0
vertex 671.957641096723 1845.56181197946 5.0
endloop
endfacet
facet normal 0.0 0.0 1.0
outer loop
vertex 671.957641096723 1845.56181197946 5.0
vertex 671.130415978676 1842.85350319158 5.0
vertex 671.751736322236 1843.33025905937 5.0
endloop
endfacet
facet normal 0.0 0.0 1.0
outer loop
vertex 671.957641096723 1845.56181197946 5.0
vertex 671.751736322236 1843.33025905937 5.0
vertex 672.475279186929 1843.62996032689 5.0
endloop
endfacet
facet normal 0.0 0.0 1.0
outer loop
vertex 671.957641096723 1845.56181197946 5.0
vertex 672.475279186929 1843.62996032689 5.0
vertex 673.251736322236 1845.73218284802 5.0
endloop
endfacet
facet normal 0.0 0.0 1.0
outer loop
vertex 673.251736322236 1845.73218284802 5.0
vertex 672.475279186929 1843.62996032689 5.0
vertex 673.251736322236 1843.73218284802 5.0
endloop
endfacet
facet normal 0.0 0.0 1.0
outer loop
vertex 673.251736322236 1845.73218284802 5.0
vertex 673.251736322236 1843.73218284802 5.0
vertex 674.028193457544 1843.62996032689 5.0
endloop
endfacet
facet normal 0.0 0.0 1.0
outer loop
vertex 673.251736322236 1845.73218284802 5.0
vertex 674.028193457544 1843.62996032689 5.0
vertex 674.545831547749 1845.56181197946 5.0
endloop
endfacet
facet normal 0.0 0.0 1.0
outer loop
vertex 674.545831547749 1845.56181197946 5.0
vertex 674.028193457544 1843.62996032689 5.0
vertex 674.751736322236 1843.33025905937 5.0
endloop
endfacet
facet normal 0.0 0.0 1.0
outer loop
vertex 674.545831547749 1845.56181197946 5.0
vertex 674.751736322236 1843.33025905937 5.0
vertex 675.751736322236 1845.06230986694 5.0
endloop
endfacet
facet normal 0.0 0.0 1.0
outer loop
vertex 675.751736322236 1845.06230986694 5.0
vertex 674.751736322236 1843.33025905937 5.0
vertex 675.373056665796 1842.85350319158 5.0
endloop
endfacet
facet normal 0.0 0.0 1.0
outer loop
vertex 675.751736322236 1845.06230986694 5.0
vertex 675.373056665796 1842.85350319158 5.0
vertex 675.849812533589 1842.23218284802 5.0
endloop
endfacet
facet normal 0.0 0.0 1.0
outer loop
vertex 675.751736322236 1845.06230986694 5.0
vertex 675.849812533589 1842.23218284802 5.0
vertex 676.787270228169 1844.26771675395 5.0
endloop
endfacet
facet normal 0.0 0.0 1.0
outer loop
vertex 676.787270228169 1844.26771675395 5.0
vertex 675.849812533589 1842.23218284802 5.0
vertex 676.149513801103 1841.50863998333 5.0
endloop
endfacet
facet normal 0.0 0.0 1.0
outer loop
vertex 676.787270228169 1844.26771675395 5.0
vertex 676.149513801103 1841.50863998333 5.0
vertex 676.251736322236 1840.73218284802 5.0
endloop
endfacet
facet normal 0.0 0.0 1.0
outer loop
vertex 676.787270228169 1844.26771675395 5.0
vertex 676.251736322236 1840.73218284802 5.0
vertex 676.787270228169 1837.19664894209 5.0
endloop
endfacet
facet normal 0.0 0.0 1.0
outer loop
vertex 676.787270228169 1844.26771675395 5.0
vertex 676.787270228169 1837.19664894209 5.0
vertex 677.581863341158 1838.23218284802 5.0
endloop
endfacet
facet normal 0.0 0.0 1.0
outer loop
vertex 676.787270228169 1844.26771675395 5.0
vertex 677.581863341158 1838.23218284802 5.0
vertex 677.581863341158 1843.23218284802 5.0
endloop
endfacet
facet normal 0.0 0.0 1.0
outer loop
vertex 677.581863341158 1843.23218284802 5.0
vertex 677.581863341158 1838.23218284802 5.0
vertex 678.081365453681 1839.43808762251 5.0
endloop
endfacet
facet normal 0.0 0.0 1.0
outer loop
vertex 677.581863341158 1843.23218284802 5.0
vertex 678.081365453681 1839.43808762251 5.0
vertex 678.081365453681 1842.02627807353 5.0
endloop
endfacet
facet normal 0.0 0.0 1.0
outer loop
vertex 678.081365453681 1842.02627807353 5.0
vertex 678.081365453681 1839.43808762251 5.0
vertex 678.251736322236 1840.73218284802 5.0
endloop
endfacet
facet normal 0.86602540378445 -0.49999999999998 0.0
outer loop
vertex 677.581863341158 1838.23218284802 0.0
vertex 676.787270228169 1837.19664894209 5.0
vertex 676.787270228169 1837.19664894209 0.0
endloop
endfacet
facet normal 0.707106781186552 -0.707106781186543 0.0
outer loop
vertex 676.787270228169 1837.19664894209 5.0
vertex 677.581863341158 1838.23218284802 0.0
vertex 677.581863341158 1838.23218284802 5.0
endloop
endfacet
facet normal 0.707106781186552 -0.707106781186543 0.0
outer loop
vertex 676.787270228169 1837.19664894209 5.0
vertex 675.751736322236 1836.4020558291 0.0
vertex 676.787270228169 1837.19664894209 0.0
endloop
endfacet
facet normal 0.499999999999965 -0.866025403784459 0.0
outer loop
vertex 675.751736322236 1836.4020558291 0.0
vertex 676.787270228169 1837.19664894209 5.0
vertex 675.751736322236 1836.4020558291 5.0
endloop
endfacet
facet normal 0.499999999999965 -0.866025403784459 0.0
outer loop
vertex 675.751736322236 1836.4020558291 5.0
vertex 674.545831547749 1835.90255371657 0.0
vertex 675.751736322236 1836.4020558291 0.0
endloop
endfacet
facet normal 0.258819045102466 -0.965925826289083 0.0
outer loop
vertex 674.545831547749 1835.90255371657 0.0
vertex 675.751736322236 1836.4020558291 5.0
vertex 674.545831547749 1835.90255371657 5.0
endloop
endfacet
facet normal 0.258819045102466 -0.965925826289083 0.0
outer loop
vertex 674.545831547749 1835.90255371657 5.0
vertex 673.251736322236 1835.73218284802 0.0
vertex 674.545831547749 1835.90255371657 0.0
endloop
endfacet
facet normal 0.0 -1.0 0.0
outer loop
vertex 673.251736322236 1835.73218284802 0.0
vertex 674.545831547749 1835.90255371657 5.0
vertex 673.251736322236 1835.73218284802 5.0
endloop
endfacet
facet normal 0.0 -1.0 0.0
outer loop
vertex 673.251736322236 1835.73218284802 5.0
vertex 671.957641096723 1835.90255371657 0.0
vertex 673.251736322236 1835.73218284802 0.0
endloop
endfacet
facet normal -0.258819045102466 -0.965925826289083 0.0
outer loop
vertex 671.957641096723 1835.90255371657 0.0
vertex 673.251736322236 1835.73218284802 5.0
vertex 671.957641096723 1835.90255371657 5.0
endloop
endfacet
facet normal -0.258819045102466 -0.965925826289083 0.0
outer loop
vertex 671.957641096723 1835.90255371657 5.0
vertex 670.751736322236 1836.4020558291 0.0
vertex 671.957641096723 1835.90255371657 0.0
endloop
endfacet
facet normal -0.499999999999965 -0.866025403784459 0.0
outer loop
vertex 670.751736322236 1836.4020558291 0.0
vertex 671.957641096723 1835.90255371657 5.0
vertex 670.751736322236 1836.4020558291 5.0
endloop
endfacet
facet normal -0.499999999999965 -0.866025403784459 0.0
outer loop
vertex 670.751736322236 1836.4020558291 5.0
vertex 669.716202416303 1837.19664894209 0.0
vertex 670.751736322236 1836.4020558291 0.0
endloop
endfacet
facet normal -0.707106781186612 -0.707106781186484 0.0
outer loop
vertex 669.716202416303 1837.19664894209 0.0
vertex 670.751736322236 1836.4020558291 5.0
vertex 669.716202416303 1837.19664894209 5.0
endloop
endfacet
facet normal -0.866025403784466 -0.499999999999953 0.0
outer loop
vertex 668.921609303314 1838.23218284802 5.0
vertex 669.716202416303 1837.19664894209 0.0
vertex 669.716202416303 1837.19664894209 5.0
endloop
endfacet
facet normal -0.707106781186612 -0.707106781186484 0.0
outer loop
vertex 669.716202416303 1837.19664894209 0.0
vertex 668.921609303314 1838.23218284802 5.0
vertex 668.921609303314 1838.23218284802 0.0
endloop
endfacet
facet normal -0.965925826289062 -0.258819045102545 0.0
outer loop
vertex 668.422107190791 1839.43808762251 5.0
vertex 668.921609303314 1838.23218284802 0.0
vertex 668.921609303314 1838.23218284802 5.0
endloop
endfacet
facet normal -0.866025403784466 -0.499999999999953 0.0
outer loop
vertex 668.921609303314 1838.23218284802 0.0
vertex 668.422107190791 1839.43808762251 5.0
vertex 668.422107190791 1839.43808762251 0.0
endloop
endfacet
facet normal -1.0 0.0 0.0
outer loop
vertex 668.251736322236 1840.73218284802 5.0
vertex 668.422107190791 1839.43808762251 0.0
vertex 668.422107190791 1839.43808762251 5.0
endloop
endfacet
facet normal -0.965925826289062 -0.258819045102545 0.0
outer loop
vertex 668.422107190791 1839.43808762251 0.0
vertex 668.251736322236 1840.73218284802 5.0
vertex 668.251736322236 1840.73218284802 0.0
endloop
endfacet
facet normal -0.965925826289075 0.258819045102494 0.0
outer loop
vertex 668.422107190791 1842.02627807353 5.0
vertex 668.251736322236 1840.73218284802 0.0
vertex 668.251736322236 1840.73218284802 5.0
endloop
endfacet
facet normal -1.0 0.0 0.0
outer loop
vertex 668.251736322236 1840.73218284802 0.0
vertex 668.422107190791 1842.02627807353 5.0
vertex 668.422107190791 1842.02627807353 0.0
endloop
endfacet
facet normal -0.86602540378445 0.49999999999998 0.0
outer loop
vertex 668.921609303314 1843.23218284802 5.0
vertex 668.422107190791 1842.02627807353 0.0
vertex 668.422107190791 1842.02627807353 5.0
endloop
endfacet
facet normal -0.965925826289075 0.258819045102494 0.0
outer loop
vertex 668.422107190791 1842.02627807353 0.0
vertex 668.921609303314 1843.23218284802 5.0
vertex 668.921609303314 1843.23218284802 0.0
endloop
endfacet
facet normal -0.707106781186552 0.707106781186543 0.0
outer loop
vertex 669.716202416303 1844.26771675395 5.0
vertex 668.921609303314 1843.23218284802 0.0
vertex 668.921609303314 1843.23218284802 5.0
endloop
endfacet
facet normal -0.86602540378445 0.49999999999998 0.0
outer loop
vertex 668.921609303314 1843.23218284802 0.0
vertex 669.716202416303 1844.26771675395 5.0
vertex 669.716202416303 1844.26771675395 0.0
endloop
endfacet
facet normal -0.707106781186552 0.707106781186543 0.0
outer loop
vertex 669.716202416303 1844.26771675395 5.0
vertex 670.751736322236 1845.06230986694 0.0
vertex 669.716202416303 1844.26771675395 0.0
endloop
endfacet
facet normal -0.499999999999965 0.866025403784459 0.0
outer loop
vertex 670.751736322236 1845.06230986694 0.0
vertex 669.716202416303 1844.26771675395 5.0
vertex 670.751736322236 1845.06230986694 5.0
endloop
endfacet
facet normal -0.499999999999965 0.866025403784459 0.0
outer loop
vertex 670.751736322236 1845.06230986694 5.0
vertex 671.957641096723 1845.56181197946 0.0
vertex 670.751736322236 1845.06230986694 0.0
endloop
endfacet
facet normal -0.258819045102466 0.965925826289083 0.0
outer loop
vertex 671.957641096723 1845.56181197946 0.0
vertex 670.751736322236 1845.06230986694 5.0
vertex 671.957641096723 1845.56181197946 5.0
endloop
endfacet
facet normal -0.258819045102466 0.965925826289083 0.0
outer loop
vertex 671.957641096723 1845.56181197946 5.0
vertex 673.251736322236 1845.73218284802 0.0
vertex 671.957641096723 1845.56181197946 0.0
endloop
endfacet
facet normal 0.0 1.0 0.0
outer loop
vertex 673.251736322236 1845.73218284802 0.0
vertex 671.957641096723 1845.56181197946 5.0
vertex 673.251736322236 1845.73218284802 5.0
endloop
endfacet
facet normal 0.0 1.0 0.0
outer loop
vertex 673.251736322236 1845.73218284802 5.0
vertex 674.545831547749 1845.56181197946 0.0
vertex 673.251736322236 1845.73218284802 0.0
endloop
endfacet
facet normal 0.258819045102466 0.965925826289083 0.0
outer loop
vertex 674.545831547749 1845.56181197946 0.0
vertex 673.251736322236 1845.73218284802 5.0
vertex 674.545831547749 1845.56181197946 5.0
endloop
endfacet
facet normal 0.258819045102466 0.965925826289083 0.0
outer loop
vertex 674.545831547749 1845.56181197946 5.0
vertex 675.751736322236 1845.06230986694 0.0
vertex 674.545831547749 1845.56181197946 0.0
endloop
endfacet
facet normal 0.499999999999965 0.866025403784459 0.0
outer loop
vertex 675.751736322236 1845.06230986694 0.0
vertex 674.545831547749 1845.56181197946 5.0
vertex 675.751736322236 1845.06230986694 5.0
endloop
endfacet
facet normal 0.499999999999965 0.866025403784459 0.0
outer loop
vertex 675.751736322236 1845.06230986694 5.0
vertex 676.787270228169 1844.26771675395 0.0
vertex 675.751736322236 1845.06230986694 0.0
endloop
endfacet
facet normal 0.707106781186612 0.707106781186484 0.0
outer loop
vertex 676.787270228169 1844.26771675395 0.0
vertex 675.751736322236 1845.06230986694 5.0
vertex 676.787270228169 1844.26771675395 5.0
endloop
endfacet
facet normal 0.707106781186612 0.707106781186484 0.0
outer loop
vertex 676.787270228169 1844.26771675395 0.0
vertex 677.581863341158 1843.23218284802 5.0
vertex 677.581863341158 1843.23218284802 0.0
endloop
endfacet
facet normal 0.866025403784466 0.499999999999953 0.0
outer loop
vertex 677.581863341158 1843.23218284802 5.0
vertex 676.787270228169 1844.26771675395 0.0
vertex 676.787270228169 1844.26771675395 5.0
endloop
endfacet
facet normal 0.866025403784466 0.499999999999953 0.0
outer loop
vertex 677.581863341158 1843.23218284802 0.0
vertex 678.081365453681 1842.02627807353 5.0
vertex 678.081365453681 1842.02627807353 0.0
endloop
endfacet
facet normal 0.965925826289062 0.258819045102545 0.0
outer loop
vertex 678.081365453681 1842.02627807353 5.0
vertex 677.581863341158 1843.23218284802 0.0
vertex 677.581863341158 1843.23218284802 5.0
endloop
endfacet
facet normal 0.965925826289062 0.258819045102545 0.0
outer loop
vertex 678.081365453681 1842.02627807353 0.0
vertex 678.251736322236 1840.73218284802 5.0
vertex 678.251736322236 1840.73218284802 0.0
endloop
endfacet
facet normal 1.0 0.0 0.0
outer loop
vertex 678.251736322236 1840.73218284802 5.0
vertex 678.081365453681 1842.02627807353 0.0
vertex 678.081365453681 1842.02627807353 5.0
endloop
endfacet
facet normal 1.0 0.0 0.0
outer loop
vertex 678.251736322236 1840.73218284802 0.0
vertex 678.081365453681 1839.43808762251 5.0
vertex 678.081365453681 1839.43808762251 0.0
endloop
endfacet
facet normal 0.965925826289075 -0.258819045102494 0.0
outer loop
vertex 678.081365453681 1839.43808762251 5.0
vertex 678.251736322236 1840.73218284802 0.0
vertex 678.251736322236 1840.73218284802 5.0
endloop
endfacet
facet normal 0.965925826289075 -0.258819045102494 0.0
outer loop
vertex 678.081365453681 1839.43808762251 0.0
vertex 677.581863341158 1838.23218284802 5.0
vertex 677.581863341158 1838.23218284802 0.0
endloop
endfacet
facet normal 0.86602540378445 -0.49999999999998 0.0
outer loop
vertex 677.581863341158 1838.23218284802 5.0
vertex 678.081365453681 1839.43808762251 0.0
vertex 678.081365453681 1839.43808762251 5.0
endloop
endfacet
facet normal -0.500000000000088 0.866025403784388 0.0
outer loop
vertex 674.751736322236 1838.13410663667 5.0
vertex 675.373056665796 1838.61086250446 0.0
vertex 674.751736322236 1838.13410663667 0.0
endloop
endfacet
facet normal -0.70710678118662 0.707106781186475 0.0
outer loop
vertex 675.373056665796 1838.61086250446 0.0
vertex 674.751736322236 1838.13410663667 5.0
vertex 675.373056665796 1838.61086250446 5.0
endloop
endfacet
facet normal -0.866025403784461 0.499999999999962 0.0
outer loop
vertex 675.849812533589 1839.23218284802 5.0
vertex 675.373056665796 1838.61086250446 0.0
vertex 675.373056665796 1838.61086250446 5.0
endloop
endfacet
facet normal -0.70710678118662 0.707106781186475 0.0
outer loop
vertex 675.373056665796 1838.61086250446 0.0
vertex 675.849812533589 1839.23218284802 5.0
vertex 675.849812533589 1839.23218284802 0.0
endloop
endfacet
facet normal -0.965925826289073 0.258819045102501 0.0
outer loop
vertex 676.149513801103 1839.95572571271 5.0
vertex 675.849812533589 1839.23218284802 0.0
vertex 675.849812533589 1839.23218284802 5.0
endloop
endfacet
facet normal -0.866025403784461 0.499999999999962 0.0
outer loop
vertex 675.849812533589 1839.23218284802 0.0
vertex 676.149513801103 1839.95572571271 5.0
vertex 676.149513801103 1839.95572571271 0.0
endloop
endfacet
facet normal -1.0 0.0 0.0
outer loop
vertex 676.251736322236 1840.73218284802 5.0
vertex 676.149513801103 1839.95572571271 0.0
vertex 676.149513801103 1839.95572571271 5.0
endloop
endfacet
facet normal -0.965925826289073 0.258819045102501 0.0
outer loop
vertex 676.149513801103 1839.95572571271 0.0
vertex 676.251736322236 1840.73218284802 5.0
vertex 676.251736322236 1840.73218284802 0.0
endloop
endfacet
facet normal -0.965925826289073 -0.258819045102501 0.0
outer loop
vertex 676.149513801103 1841.50863998333 5.0
vertex 676.251736322236 1840.73218284802 0.0
vertex 676.251736322236 1840.73218284802 5.0
endloop
endfacet
facet normal -1.0 0.0 0.0
outer loop
vertex 676.251736322236 1840.73218284802 0.0
vertex 676.149513801103 1841.50863998333 5.0
vertex 676.149513801103 1841.50863998333 0.0
endloop
endfacet
facet normal -0.866025403784461 -0.499999999999962 0.0
outer loop
vertex 675.849812533589 1842.23218284802 5.0
vertex 676.149513801103 1841.50863998333 0.0
vertex 676.149513801103 1841.50863998333 5.0
endloop
endfacet
facet normal -0.965925826289073 -0.258819045102501 0.0
outer loop
vertex 676.149513801103 1841.50863998333 0.0
vertex 675.849812533589 1842.23218284802 5.0
vertex 675.849812533589 1842.23218284802 0.0
endloop
endfacet
facet normal -0.70710678118662 -0.707106781186475 0.0
outer loop
vertex 675.373056665796 1842.85350319158 5.0
vertex 675.849812533589 1842.23218284802 0.0
vertex 675.849812533589 1842.23218284802 5.0
endloop
endfacet
facet normal -0.866025403784461 -0.499999999999962 0.0
outer loop
vertex 675.849812533589 1842.23218284802 0.0
vertex 675.373056665796 1842.85350319158 5.0
vertex 675.373056665796 1842.85350319158 0.0
endloop
endfacet
facet normal -0.70710678118662 -0.707106781186475 0.0
outer loop
vertex 675.373056665796 1842.85350319158 5.0
vertex 674.751736322236 1843.33025905937 0.0
vertex 675.373056665796 1842.85350319158 0.0
endloop
endfacet
facet normal -0.500000000000088 -0.866025403784388 0.0
outer loop
vertex 674.751736322236 1843.33025905937 0.0
vertex 675.373056665796 1842.85350319158 5.0
vertex 674.751736322236 1843.33025905937 5.0
endloop
endfacet
facet normal -0.500000000000088 -0.866025403784388 0.0
outer loop
vertex 674.751736322236 1843.33025905937 5.0
vertex 674.028193457544 1843.62996032689 0.0
vertex 674.751736322236 1843.33025905937 0.0
endloop
endfacet
facet normal -0.258819045102419 -0.965925826289095 0.0
outer loop
vertex 674.028193457544 1843.62996032689 0.0
vertex 674.751736322236 1843.33025905937 5.0
vertex 674.028193457544 1843.62996032689 5.0
endloop
endfacet
facet normal -0.258819045102419 -0.965925826289095 0.0
outer loop
vertex 674.028193457544 1843.62996032689 5.0
vertex 673.251736322236 1843.73218284802 0.0
vertex 674.028193457544 1843.62996032689 0.0
endloop
endfacet
facet normal 0.0 -1.0 0.0
outer loop
vertex 673.251736322236 1843.73218284802 0.0
vertex 674.028193457544 1843.62996032689 5.0
vertex 673.251736322236 1843.73218284802 5.0
endloop
endfacet
facet normal 0.0 -1.0 0.0
outer loop
vertex 673.251736322236 1843.73218284802 5.0
vertex 672.475279186929 1843.62996032689 0.0
vertex 673.251736322236 1843.73218284802 0.0
endloop
endfacet
facet normal 0.258819045102419 -0.965925826289095 0.0
outer loop
vertex 672.475279186929 1843.62996032689 0.0
vertex 673.251736322236 1843.73218284802 5.0
vertex 672.475279186929 1843.62996032689 5.0
endloop
endfacet
facet normal 0.258819045102419 -0.965925826289095 0.0
outer loop
vertex 672.475279186929 1843.62996032689 5.0
vertex 671.751736322236 1843.33025905937 0.0
vertex 672.475279186929 1843.62996032689 0.0
endloop
endfacet
facet normal 0.500000000000088 -0.866025403784388 0.0
outer loop
vertex 671.751736322236 1843.33025905937 0.0
vertex 672.475279186929 1843.62996032689 5.0
vertex 671.751736322236 1843.33025905937 5.0
endloop
endfacet
facet normal 0.500000000000088 -0.866025403784388 0.0
outer loop
vertex 671.751736322236 1843.33025905937 5.0
vertex 671.130415978676 1842.85350319158 0.0
vertex 671.751736322236 1843.33025905937 0.0
endloop
endfacet
facet normal 0.70710678118662 -0.707106781186475 0.0
outer loop
vertex 671.130415978676 1842.85350319158 0.0
vertex 671.751736322236 1843.33025905937 5.0
vertex 671.130415978676 1842.85350319158 5.0
endloop
endfacet
facet normal 0.70710678118662 -0.707106781186475 0.0
outer loop
vertex 671.130415978676 1842.85350319158 0.0
vertex 670.653660110883 1842.23218284802 5.0
vertex 670.653660110883 1842.23218284802 0.0
endloop
endfacet
facet normal 0.866025403784461 -0.499999999999962 0.0
outer loop
vertex 670.653660110883 1842.23218284802 5.0
vertex 671.130415978676 1842.85350319158 0.0
vertex 671.130415978676 1842.85350319158 5.0
endloop
endfacet
facet normal 0.866025403784461 -0.499999999999962 0.0
outer loop
vertex 670.653660110883 1842.23218284802 0.0
vertex 670.353958843369 1841.50863998333 5.0
vertex 670.353958843369 1841.50863998333 0.0
endloop
endfacet
facet normal 0.965925826289073 -0.258819045102501 0.0
outer loop
vertex 670.353958843369 1841.50863998333 5.0
vertex 670.653660110883 1842.23218284802 0.0
vertex 670.653660110883 1842.23218284802 5.0
endloop
endfacet
facet normal 0.965925826289073 -0.258819045102501 0.0
outer loop
vertex 670.353958843369 1841.50863998333 0.0
vertex 670.251736322236 1840.73218284802 5.0
vertex 670.251736322236 1840.73218284802 0.0
endloop
endfacet
facet normal 1.0 0.0 0.0
outer loop
vertex 670.251736322236 1840.73218284802 5.0
vertex 670.353958843369 1841.50863998333 0.0
vertex 670.353958843369 1841.50863998333 5.0
endloop
endfacet
facet normal 1.0 0.0 0.0
outer loop
vertex 670.251736322236 1840.73218284802 0.0
vertex 670.353958843369 1839.95572571271 5.0
vertex 670.353958843369 1839.95572571271 0.0
endloop
endfacet
facet normal 0.965925826289073 0.258819045102501 0.0
outer loop
vertex 670.353958843369 1839.95572571271 5.0
vertex 670.251736322236 1840.73218284802 0.0
vertex 670.251736322236 1840.73218284802 5.0
endloop
endfacet
facet normal 0.965925826289073 0.258819045102501 0.0
outer loop
vertex 670.353958843369 1839.95572571271 0.0
vertex 670.653660110883 1839.23218284802 5.0
vertex 670.653660110883 1839.23218284802 0.0
endloop
endfacet
facet normal 0.866025403784461 0.499999999999962 0.0
outer loop
vertex 670.653660110883 1839.23218284802 5.0
vertex 670.353958843369 1839.95572571271 0.0
vertex 670.353958843369 1839.95572571271 5.0
endloop
endfacet
facet normal 0.866025403784461 0.499999999999962 0.0
outer loop
vertex 670.653660110883 1839.23218284802 0.0
vertex 671.130415978676 1838.61086250446 5.0
vertex 671.130415978676 1838.61086250446 0.0
endloop
endfacet
facet normal 0.70710678118662 0.707106781186475 0.0
outer loop
vertex 671.130415978676 1838.61086250446 5.0
vertex 670.653660110883 1839.23218284802 0.0
vertex 670.653660110883 1839.23218284802 5.0
endloop
endfacet
facet normal 0.70710678118662 0.707106781186475 0.0
outer loop
vertex 671.130415978676 1838.61086250446 5.0
vertex 671.751736322236 1838.13410663667 0.0
vertex 671.130415978676 1838.61086250446 0.0
endloop
endfacet
facet normal 0.500000000000088 0.866025403784388 0.0
outer loop
vertex 671.751736322236 1838.13410663667 0.0
vertex 671.130415978676 1838.61086250446 5.0
vertex 671.751736322236 1838.13410663667 5.0
endloop
endfacet
facet normal 0.500000000000088 0.866025403784388 0.0
outer loop
vertex 671.751736322236 1838.13410663667 5.0
vertex 672.475279186929 1837.83440536915 0.0
vertex 671.751736322236 1838.13410663667 0.0
endloop
endfacet
facet normal 0.258819045102419 0.965925826289095 0.0
outer loop
vertex 672.475279186929 1837.83440536915 0.0
vertex 671.751736322236 1838.13410663667 5.0
vertex 672.475279186929 1837.83440536915 5.0
endloop
endfacet
facet normal 0.258819045102419 0.965925826289095 0.0
outer loop
vertex 672.475279186929 1837.83440536915 5.0
vertex 673.251736322236 1837.73218284802 0.0
vertex 672.475279186929 1837.83440536915 0.0
endloop
endfacet
facet normal 0.0 1.0 0.0
outer loop
vertex 673.251736322236 1837.73218284802 0.0
vertex 672.475279186929 1837.83440536915 5.0
vertex 673.251736322236 1837.73218284802 5.0
endloop
endfacet
facet normal 0.0 1.0 0.0
outer loop
vertex 673.251736322236 1837.73218284802 5.0
vertex 674.028193457544 1837.83440536915 0.0
vertex 673.251736322236 1837.73218284802 0.0
endloop
endfacet
facet normal -0.258819045102419 0.965925826289095 0.0
outer loop
vertex 674.028193457544 1837.83440536915 0.0
vertex 673.251736322236 1837.73218284802 5.0
vertex 674.028193457544 1837.83440536915 5.0
endloop
endfacet
facet normal -0.258819045102419 0.965925826289095 0.0
outer loop
vertex 674.028193457544 1837.83440536915 5.0
vertex 674.751736322236 1838.13410663667 0.0
vertex 674.028193457544 1837.83440536915 0.0
endloop
endfacet
facet normal -0.500000000000088 0.866025403784388 0.0
outer loop
vertex 674.751736322236 1838.13410663667 0.0
vertex 674.028193457544 1837.83440536915 5.0
vertex 674.751736322236 1838.13410663667 5.0
endloop
endfacet
endsolid untitled
